<svg xmlns="http://www.w3.org/2000/svg" xmlns:xlink="http://www.w3.org/1999/xlink" width="672" height="284pt" viewBox="0 0 504 284"><g id="graph0" class="graph" transform="scale(1 1) rotate(0) translate(4 280)"><title>dependencies</title><polygon fill="#fff" stroke="transparent" points="-4 4 -4 -280 500 -280 500 4 -4 4"/><text x="227.009" y="-42.4" fill="#000" font-family="sans-serif" font-size="14" font-weight="bold" text-anchor="start">Legend</text><polygon fill="#ffffb3" stroke="transparent" points="14 -10 14 -30 34 -30 34 -10 14 -10"/><text x="37.629" y="-15.4" fill="#000" font-family="sans-serif" font-size="14" text-anchor="start">Declarations</text><polygon fill="#8dd3c7" stroke="transparent" points="127 -10 127 -30 147 -30 147 -10 127 -10"/><text x="150.725" y="-15.4" fill="#000" font-family="sans-serif" font-size="14" text-anchor="start">Module</text><polygon fill="#80b1d3" stroke="transparent" points="213 -10 213 -30 233 -30 233 -10 213 -10"/><text x="236.781" y="-15.4" fill="#000" font-family="sans-serif" font-size="14" text-anchor="start">Bootstrap</text><polygon fill="#fdb462" stroke="transparent" points="310 -10 310 -30 330 -30 330 -10 310 -10"/><text x="333.673" y="-15.4" fill="#000" font-family="sans-serif" font-size="14" text-anchor="start">Providers</text><polygon fill="#fb8072" stroke="transparent" points="406 -10 406 -30 426 -30 426 -10 406 -10"/><text x="429.726" y="-15.4" fill="#000" font-family="sans-serif" font-size="14" text-anchor="start">Exports</text><g id="clust1" class="cluster"><title>cluster_UserinterfaceModule</title><polygon fill="none" stroke="#000" stroke-dasharray="1 5" points="52 -70 52 -268 444 -268 444 -70 52 -70"/></g><g id="clust2" class="cluster"><title>cluster_UserinterfaceModule_declarations</title><polygon fill="none" stroke="#000" points="264 -78 264 -130 436 -130 436 -78 264 -78"/></g><g id="clust4" class="cluster"><title>cluster_UserinterfaceModule_imports</title><polygon fill="none" stroke="#000" points="60 -78 60 -130 256 -130 256 -78 60 -78"/></g><g id="clust5" class="cluster"><title>cluster_UserinterfaceModule_exports</title><polygon fill="none" stroke="#000" points="165 -208 165 -260 341 -260 341 -208 165 -208"/></g><g id="node1" class="node"><title>UserinterfaceComponent</title><polygon fill="#ffffb3" stroke="#000" points="428.22 -122 271.78 -122 271.78 -86 428.22 -86 428.22 -122"/><text x="350" y="-99.8" fill="#000" font-family="Times,serif" font-size="14" text-anchor="middle">UserinterfaceComponent</text></g><g id="node2" class="node"><title>UserinterfaceModule</title><polygon fill="#8dd3c7" stroke="#000" points="320.437 -187 317.437 -191 296.437 -191 293.437 -187 185.563 -187 185.563 -151 320.437 -151 320.437 -187"/><text x="253" y="-164.8" fill="#000" font-family="Times,serif" font-size="14" text-anchor="middle">UserinterfaceModule</text></g><g id="edge1" class="edge"><title>UserinterfaceComponent-&gt;UserinterfaceModule</title><path fill="none" stroke="#000" d="M296.0544,-122.1061C296.0544,-122.1061 296.0544,-140.991 296.0544,-140.991"/><polygon fill="#000" stroke="#000" points="292.554 -140.991 296.054 -150.991 299.554 -140.991 292.554 -140.991"/></g><g id="node4" class="node"><title>UserinterfaceComponent</title><polygon fill="#fb8072" stroke="#000" points="333.22 -252 172.78 -252 172.78 -216 333.22 -216 333.22 -252"/><text x="253" y="-229.8" fill="#000" font-family="Times,serif" font-size="14" text-anchor="middle">UserinterfaceComponent</text></g><g id="edge3" class="edge"><title>UserinterfaceModule-&gt;UserinterfaceComponent</title><path fill="none" stroke="#000" stroke-dasharray="5 2" d="M253,-187.1061C253,-187.1061 253,-205.991 253,-205.991"/><polygon fill="#000" stroke="#000" points="249.5 -205.991 253 -215.991 256.5 -205.991 249.5 -205.991"/></g><g id="node3" class="node"><title>UserinterfaceRoutingModule</title><polygon fill="#8dd3c7" stroke="#000" points="248.055 -122 245.055 -126 224.055 -126 221.055 -122 67.945 -122 67.945 -86 248.055 -86 248.055 -122"/><text x="158" y="-99.8" fill="#000" font-family="Times,serif" font-size="14" text-anchor="middle">UserinterfaceRoutingModule</text></g><g id="edge2" class="edge"><title>UserinterfaceRoutingModule-&gt;UserinterfaceModule</title><path fill="none" stroke="#000" d="M216.7795,-122.1061C216.7795,-122.1061 216.7795,-140.991 216.7795,-140.991"/><polygon fill="#000" stroke="#000" points="213.28 -140.991 216.78 -150.991 220.28 -140.991 213.28 -140.991"/></g></g></svg>