<svg xmlns="http://www.w3.org/2000/svg" xmlns:xlink="http://www.w3.org/1999/xlink" width="848pt" height="211pt" viewBox="0 0 848 211"><g id="graph0" class="graph" transform="scale(1 1) rotate(0) translate(4 207)"><title>dependencies</title><polygon fill="#fff" stroke="transparent" points="-4 4 -4 -207 844 -207 844 4 -4 4"/><text x="399.009" y="-42.4" fill="#000" font-family="sans-serif" font-size="14" font-weight="bold" text-anchor="start">Legend</text><polygon fill="#ffffb3" stroke="transparent" points="186 -10 186 -30 206 -30 206 -10 186 -10"/><text x="209.629" y="-15.4" fill="#000" font-family="sans-serif" font-size="14" text-anchor="start">Declarations</text><polygon fill="#8dd3c7" stroke="transparent" points="299 -10 299 -30 319 -30 319 -10 299 -10"/><text x="322.725" y="-15.4" fill="#000" font-family="sans-serif" font-size="14" text-anchor="start">Module</text><polygon fill="#80b1d3" stroke="transparent" points="385 -10 385 -30 405 -30 405 -10 385 -10"/><text x="408.781" y="-15.4" fill="#000" font-family="sans-serif" font-size="14" text-anchor="start">Bootstrap</text><polygon fill="#fdb462" stroke="transparent" points="482 -10 482 -30 502 -30 502 -10 482 -10"/><text x="505.673" y="-15.4" fill="#000" font-family="sans-serif" font-size="14" text-anchor="start">Providers</text><polygon fill="#fb8072" stroke="transparent" points="578 -10 578 -30 598 -30 598 -10 578 -10"/><text x="601.726" y="-15.4" fill="#000" font-family="sans-serif" font-size="14" text-anchor="start">Exports</text><g id="clust1" class="cluster"><title>cluster_AuthModule</title><polygon fill="none" stroke="#000" stroke-dasharray="1 5" points="8 -70 8 -195 832 -195 832 -70 8 -70"/></g><g id="clust2" class="cluster"><title>cluster_AuthModule_declarations</title><polygon fill="none" stroke="#000" points="286 -78 286 -130 824 -130 824 -78 286 -78"/></g><g id="clust7" class="cluster"><title>cluster_AuthModule_imports</title><polygon fill="none" stroke="#000" points="16 -78 16 -130 278 -130 278 -78 16 -78"/></g><g id="node1" class="node"><title>ForgotComponent</title><polygon fill="#ffffb3" stroke="#000" points="816.167 -122 697.833 -122 697.833 -86 816.167 -86 816.167 -122"/><text x="757" y="-99.8" fill="#000" font-family="Times,serif" font-size="14" text-anchor="middle">ForgotComponent</text></g><g id="node5" class="node"><title>AuthModule</title><polygon fill="#8dd3c7" stroke="#000" points="465.548 -187 462.548 -191 441.548 -191 438.548 -187 378.452 -187 378.452 -151 465.548 -151 465.548 -187"/><text x="422" y="-164.8" fill="#000" font-family="Times,serif" font-size="14" text-anchor="middle">AuthModule</text></g><g id="edge1" class="edge"><title>ForgotComponent-&gt;AuthModule</title><path fill="none" stroke="#000" d="M757,-122.2843C757,-143.3211 757,-175 757,-175 757,-175 475.7954,-175 475.7954,-175"/><polygon fill="#000" stroke="#000" points="475.795 -171.5 465.795 -175 475.795 -178.5 475.795 -171.5"/></g><g id="node2" class="node"><title>LoginComponent</title><polygon fill="#ffffb3" stroke="#000" points="679.276 -122 564.724 -122 564.724 -86 679.276 -86 679.276 -122"/><text x="622" y="-99.8" fill="#000" font-family="Times,serif" font-size="14" text-anchor="middle">LoginComponent</text></g><g id="edge2" class="edge"><title>LoginComponent-&gt;AuthModule</title><path fill="none" stroke="#000" d="M622,-122.0225C622,-139.3734 622,-163 622,-163 622,-163 475.8908,-163 475.8908,-163"/><polygon fill="#000" stroke="#000" points="475.891 -159.5 465.891 -163 475.891 -166.5 475.891 -159.5"/></g><g id="node3" class="node"><title>ResetComponent</title><polygon fill="#ffffb3" stroke="#000" points="546.434 -122 433.566 -122 433.566 -86 546.434 -86 546.434 -122"/><text x="490" y="-99.8" fill="#000" font-family="Times,serif" font-size="14" text-anchor="middle">ResetComponent</text></g><g id="edge3" class="edge"><title>ResetComponent-&gt;AuthModule</title><path fill="none" stroke="#000" d="M449.7784,-122.1061C449.7784,-122.1061 449.7784,-140.991 449.7784,-140.991"/><polygon fill="#000" stroke="#000" points="446.279 -140.991 449.778 -150.991 453.279 -140.991 446.279 -140.991"/></g><g id="node4" class="node"><title>SignupComponent</title><polygon fill="#ffffb3" stroke="#000" points="415.506 -122 294.494 -122 294.494 -86 415.506 -86 415.506 -122"/><text x="355" y="-99.8" fill="#000" font-family="Times,serif" font-size="14" text-anchor="middle">SignupComponent</text></g><g id="edge4" class="edge"><title>SignupComponent-&gt;AuthModule</title><path fill="none" stroke="#000" d="M396.8647,-122.1061C396.8647,-122.1061 396.8647,-140.991 396.8647,-140.991"/><polygon fill="#000" stroke="#000" points="393.365 -140.991 396.865 -150.991 400.365 -140.991 393.365 -140.991"/></g><g id="node6" class="node"><title>AuthRoutingModule</title><polygon fill="#8dd3c7" stroke="#000" points="270.165 -122 267.165 -126 246.165 -126 243.165 -122 137.835 -122 137.835 -86 270.165 -86 270.165 -122"/><text x="204" y="-99.8" fill="#000" font-family="Times,serif" font-size="14" text-anchor="middle">AuthRoutingModule</text></g><g id="edge5" class="edge"><title>AuthRoutingModule-&gt;AuthModule</title><path fill="none" stroke="#000" d="M204,-122.0225C204,-139.3734 204,-163 204,-163 204,-163 368.4084,-163 368.4084,-163"/><polygon fill="#000" stroke="#000" points="368.408 -166.5 378.408 -163 368.408 -159.5 368.408 -166.5"/></g><g id="node7" class="node"><title>FormsModule</title><polygon fill="#8dd3c7" stroke="#000" points="119.829 -122 116.829 -126 95.829 -126 92.829 -122 24.171 -122 24.171 -86 119.829 -86 119.829 -122"/><text x="72" y="-99.8" fill="#000" font-family="Times,serif" font-size="14" text-anchor="middle">FormsModule</text></g><g id="edge6" class="edge"><title>FormsModule-&gt;AuthModule</title><path fill="none" stroke="#000" d="M72,-122.2843C72,-143.3211 72,-175 72,-175 72,-175 368.3799,-175 368.3799,-175"/><polygon fill="#000" stroke="#000" points="368.38 -178.5 378.38 -175 368.38 -171.5 368.38 -178.5"/></g></g></svg>