<svg xmlns="http://www.w3.org/2000/svg" xmlns:xlink="http://www.w3.org/1999/xlink" width="672" height="284pt" viewBox="0 0 504 284"><g id="graph0" class="graph" transform="scale(1 1) rotate(0) translate(4 280)"><title>dependencies</title><polygon fill="#fff" stroke="transparent" points="-4 4 -4 -280 500 -280 500 4 -4 4"/><text x="227.009" y="-42.4" fill="#000" font-family="sans-serif" font-size="14" font-weight="bold" text-anchor="start">Legend</text><polygon fill="#ffffb3" stroke="transparent" points="14 -10 14 -30 34 -30 34 -10 14 -10"/><text x="37.629" y="-15.4" fill="#000" font-family="sans-serif" font-size="14" text-anchor="start">Declarations</text><polygon fill="#8dd3c7" stroke="transparent" points="127 -10 127 -30 147 -30 147 -10 127 -10"/><text x="150.725" y="-15.4" fill="#000" font-family="sans-serif" font-size="14" text-anchor="start">Module</text><polygon fill="#80b1d3" stroke="transparent" points="213 -10 213 -30 233 -30 233 -10 213 -10"/><text x="236.781" y="-15.4" fill="#000" font-family="sans-serif" font-size="14" text-anchor="start">Bootstrap</text><polygon fill="#fdb462" stroke="transparent" points="310 -10 310 -30 330 -30 330 -10 310 -10"/><text x="333.673" y="-15.4" fill="#000" font-family="sans-serif" font-size="14" text-anchor="start">Providers</text><polygon fill="#fb8072" stroke="transparent" points="406 -10 406 -30 426 -30 426 -10 406 -10"/><text x="429.726" y="-15.4" fill="#000" font-family="sans-serif" font-size="14" text-anchor="start">Exports</text><g id="clust1" class="cluster"><title>cluster_SharedModule</title><polygon fill="none" stroke="#000" stroke-dasharray="1 5" points="96.5 -70 96.5 -268 399.5 -268 399.5 -70 96.5 -70"/></g><g id="clust2" class="cluster"><title>cluster_SharedModule_declarations</title><polygon fill="none" stroke="#000" points="108.5 -78 108.5 -130 388.5 -130 388.5 -78 108.5 -78"/></g><g id="clust6" class="cluster"><title>cluster_SharedModule_exports</title><polygon fill="none" stroke="#000" points="104.5 -208 104.5 -260 391.5 -260 391.5 -208 104.5 -208"/></g><g id="node1" class="node"><title>HeaderComponent</title><polygon fill="#ffffb3" stroke="#000" points="380.244 -122 258.756 -122 258.756 -86 380.244 -86 380.244 -122"/><text x="319.5" y="-99.8" fill="#000" font-family="Times,serif" font-size="14" text-anchor="middle">HeaderComponent</text></g><g id="node3" class="node"><title>SharedModule</title><polygon fill="#8dd3c7" stroke="#000" points="228.923 -187 225.923 -191 204.923 -191 201.923 -187 130.077 -187 130.077 -151 228.923 -151 228.923 -187"/><text x="179.5" y="-164.8" fill="#000" font-family="Times,serif" font-size="14" text-anchor="middle">SharedModule</text></g><g id="edge1" class="edge"><title>HeaderComponent-&gt;SharedModule</title><path fill="none" stroke="#000" d="M339.7906,-122.0225C339.7906,-139.3734 339.7906,-163 339.7906,-163 339.7906,-163 238.9004,-163 238.9004,-163"/><polygon fill="#000" stroke="#000" points="238.9 -159.5 228.9 -163 238.9 -166.5 238.9 -159.5"/></g><g id="node2" class="node"><title>SidebarComponent</title><polygon fill="#ffffb3" stroke="#000" points="240.595 -122 116.405 -122 116.405 -86 240.595 -86 240.595 -122"/><text x="178.5" y="-99.8" fill="#000" font-family="Times,serif" font-size="14" text-anchor="middle">SidebarComponent</text></g><g id="edge2" class="edge"><title>SidebarComponent-&gt;SharedModule</title><path fill="none" stroke="#000" d="M179.5,-122.1061C179.5,-122.1061 179.5,-140.991 179.5,-140.991"/><polygon fill="#000" stroke="#000" points="176 -140.991 179.5 -150.991 183 -140.991 176 -140.991"/></g><g id="node4" class="node"><title>HeaderComponent</title><polygon fill="#fb8072" stroke="#000" points="383.244 -252 257.756 -252 257.756 -216 383.244 -216 383.244 -252"/><text x="320.5" y="-229.8" fill="#000" font-family="Times,serif" font-size="14" text-anchor="middle">HeaderComponent</text></g><g id="edge3" class="edge"><title>SharedModule-&gt;HeaderComponent</title><path fill="none" stroke="#000" stroke-dasharray="5 2" d="M228.8815,-175C261.8569,-175 299.2094,-175 299.2094,-175 299.2094,-175 299.2094,-205.9775 299.2094,-205.9775"/><polygon fill="#000" stroke="#000" points="295.709 -205.977 299.209 -215.977 302.709 -205.977 295.709 -205.977"/></g><g id="node5" class="node"><title>SidebarComponent</title><polygon fill="#fb8072" stroke="#000" points="240.096 -252 112.904 -252 112.904 -216 240.096 -216 240.096 -252"/><text x="176.5" y="-229.8" fill="#000" font-family="Times,serif" font-size="14" text-anchor="middle">SidebarComponent</text></g><g id="edge4" class="edge"><title>SharedModule-&gt;SidebarComponent</title><path fill="none" stroke="#000" stroke-dasharray="5 2" d="M179.5,-187.1061C179.5,-187.1061 179.5,-205.991 179.5,-205.991"/><polygon fill="#000" stroke="#000" points="176 -205.991 179.5 -215.991 183 -205.991 176 -205.991"/></g></g></svg>