<svg xmlns="http://www.w3.org/2000/svg" xmlns:xlink="http://www.w3.org/1999/xlink" width="672" height="284pt" viewBox="0 0 504 284"><g id="graph0" class="graph" transform="scale(1 1) rotate(0) translate(4 280)"><title>dependencies</title><polygon fill="#fff" stroke="transparent" points="-4 4 -4 -280 500 -280 500 4 -4 4"/><text x="227.009" y="-42.4" fill="#000" font-family="sans-serif" font-size="14" font-weight="bold" text-anchor="start">Legend</text><polygon fill="#ffffb3" stroke="transparent" points="14 -10 14 -30 34 -30 34 -10 14 -10"/><text x="37.629" y="-15.4" fill="#000" font-family="sans-serif" font-size="14" text-anchor="start">Declarations</text><polygon fill="#8dd3c7" stroke="transparent" points="127 -10 127 -30 147 -30 147 -10 127 -10"/><text x="150.725" y="-15.4" fill="#000" font-family="sans-serif" font-size="14" text-anchor="start">Module</text><polygon fill="#80b1d3" stroke="transparent" points="213 -10 213 -30 233 -30 233 -10 213 -10"/><text x="236.781" y="-15.4" fill="#000" font-family="sans-serif" font-size="14" text-anchor="start">Bootstrap</text><polygon fill="#fdb462" stroke="transparent" points="310 -10 310 -30 330 -30 330 -10 310 -10"/><text x="333.673" y="-15.4" fill="#000" font-family="sans-serif" font-size="14" text-anchor="start">Providers</text><polygon fill="#fb8072" stroke="transparent" points="406 -10 406 -30 426 -30 426 -10 406 -10"/><text x="429.726" y="-15.4" fill="#000" font-family="sans-serif" font-size="14" text-anchor="start">Exports</text><g id="clust1" class="cluster"><title>cluster_ContentModule</title><polygon fill="none" stroke="#000" stroke-dasharray="1 5" points="83 -70 83 -268 413 -268 413 -70 83 -70"/></g><g id="clust2" class="cluster"><title>cluster_ContentModule_declarations</title><polygon fill="none" stroke="#000" points="263 -78 263 -130 405 -130 405 -78 263 -78"/></g><g id="clust4" class="cluster"><title>cluster_ContentModule_imports</title><polygon fill="none" stroke="#000" points="91 -78 91 -130 255 -130 255 -78 91 -78"/></g><g id="clust5" class="cluster"><title>cluster_ContentModule_exports</title><polygon fill="none" stroke="#000" points="179 -208 179 -260 325 -260 325 -208 179 -208"/></g><g id="node1" class="node"><title>ContentComponent</title><polygon fill="#ffffb3" stroke="#000" points="396.665 -122 271.335 -122 271.335 -86 396.665 -86 396.665 -122"/><text x="334" y="-99.8" fill="#000" font-family="Times,serif" font-size="14" text-anchor="middle">ContentComponent</text></g><g id="node2" class="node"><title>ContentModule</title><polygon fill="#8dd3c7" stroke="#000" points="303.882 -187 300.882 -191 279.882 -191 276.882 -187 200.118 -187 200.118 -151 303.882 -151 303.882 -187"/><text x="252" y="-164.8" fill="#000" font-family="Times,serif" font-size="14" text-anchor="middle">ContentModule</text></g><g id="edge1" class="edge"><title>ContentComponent-&gt;ContentModule</title><path fill="none" stroke="#000" d="M287.5544,-122.1061C287.5544,-122.1061 287.5544,-140.991 287.5544,-140.991"/><polygon fill="#000" stroke="#000" points="284.054 -140.991 287.554 -150.991 291.054 -140.991 284.054 -140.991"/></g><g id="node4" class="node"><title>ContentComponent</title><polygon fill="#fb8072" stroke="#000" points="316.665 -252 187.335 -252 187.335 -216 316.665 -216 316.665 -252"/><text x="252" y="-229.8" fill="#000" font-family="Times,serif" font-size="14" text-anchor="middle">ContentComponent</text></g><g id="edge3" class="edge"><title>ContentModule-&gt;ContentComponent</title><path fill="none" stroke="#000" stroke-dasharray="5 2" d="M252,-187.1061C252,-187.1061 252,-205.991 252,-205.991"/><polygon fill="#000" stroke="#000" points="248.5 -205.991 252 -215.991 255.5 -205.991 248.5 -205.991"/></g><g id="node3" class="node"><title>ContentRoutingModule</title><polygon fill="#8dd3c7" stroke="#000" points="247.5 -122 244.5 -126 223.5 -126 220.5 -122 98.5 -122 98.5 -86 247.5 -86 247.5 -122"/><text x="173" y="-99.8" fill="#000" font-family="Times,serif" font-size="14" text-anchor="middle">ContentRoutingModule</text></g><g id="edge2" class="edge"><title>ContentRoutingModule-&gt;ContentModule</title><path fill="none" stroke="#000" d="M223.7795,-122.1061C223.7795,-122.1061 223.7795,-140.991 223.7795,-140.991"/><polygon fill="#000" stroke="#000" points="220.28 -140.991 223.78 -150.991 227.28 -140.991 220.28 -140.991"/></g></g></svg>