<svg xmlns="http://www.w3.org/2000/svg" xmlns:xlink="http://www.w3.org/1999/xlink" width="672" height="284pt" viewBox="0 0 504 284"><g id="graph0" class="graph" transform="scale(1 1) rotate(0) translate(4 280)"><title>dependencies</title><polygon fill="#fff" stroke="transparent" points="-4 4 -4 -280 500 -280 500 4 -4 4"/><text x="227.009" y="-42.4" fill="#000" font-family="sans-serif" font-size="14" font-weight="bold" text-anchor="start">Legend</text><polygon fill="#ffffb3" stroke="transparent" points="14 -10 14 -30 34 -30 34 -10 14 -10"/><text x="37.629" y="-15.4" fill="#000" font-family="sans-serif" font-size="14" text-anchor="start">Declarations</text><polygon fill="#8dd3c7" stroke="transparent" points="127 -10 127 -30 147 -30 147 -10 127 -10"/><text x="150.725" y="-15.4" fill="#000" font-family="sans-serif" font-size="14" text-anchor="start">Module</text><polygon fill="#80b1d3" stroke="transparent" points="213 -10 213 -30 233 -30 233 -10 213 -10"/><text x="236.781" y="-15.4" fill="#000" font-family="sans-serif" font-size="14" text-anchor="start">Bootstrap</text><polygon fill="#fdb462" stroke="transparent" points="310 -10 310 -30 330 -30 330 -10 310 -10"/><text x="333.673" y="-15.4" fill="#000" font-family="sans-serif" font-size="14" text-anchor="start">Providers</text><polygon fill="#fb8072" stroke="transparent" points="406 -10 406 -30 426 -30 426 -10 406 -10"/><text x="429.726" y="-15.4" fill="#000" font-family="sans-serif" font-size="14" text-anchor="start">Exports</text><g id="clust1" class="cluster"><title>cluster_StatsModule</title><polygon fill="none" stroke="#000" stroke-dasharray="1 5" points="100 -70 100 -268 396 -268 396 -70 100 -70"/></g><g id="clust2" class="cluster"><title>cluster_StatsModule_declarations</title><polygon fill="none" stroke="#000" points="264 -78 264 -130 388 -130 388 -78 264 -78"/></g><g id="clust4" class="cluster"><title>cluster_StatsModule_imports</title><polygon fill="none" stroke="#000" points="108 -78 108 -130 256 -130 256 -78 108 -78"/></g><g id="clust5" class="cluster"><title>cluster_StatsModule_exports</title><polygon fill="none" stroke="#000" points="189 -208 189 -260 317 -260 317 -208 189 -208"/></g><g id="node1" class="node"><title>StatsComponent</title><polygon fill="#ffffb3" stroke="#000" points="380.056 -122 271.944 -122 271.944 -86 380.056 -86 380.056 -122"/><text x="326" y="-99.8" fill="#000" font-family="Times,serif" font-size="14" text-anchor="middle">StatsComponent</text></g><g id="node2" class="node"><title>StatsModule</title><polygon fill="#8dd3c7" stroke="#000" points="296.273 -187 293.273 -191 272.273 -191 269.273 -187 209.727 -187 209.727 -151 296.273 -151 296.273 -187"/><text x="253" y="-164.8" fill="#000" font-family="Times,serif" font-size="14" text-anchor="middle">StatsModule</text></g><g id="edge1" class="edge"><title>StatsComponent-&gt;StatsModule</title><path fill="none" stroke="#000" d="M284.0544,-122.1061C284.0544,-122.1061 284.0544,-140.991 284.0544,-140.991"/><polygon fill="#000" stroke="#000" points="280.554 -140.991 284.054 -150.991 287.554 -140.991 280.554 -140.991"/></g><g id="node4" class="node"><title>StatsComponent</title><polygon fill="#fb8072" stroke="#000" points="309.055 -252 196.945 -252 196.945 -216 309.055 -216 309.055 -252"/><text x="253" y="-229.8" fill="#000" font-family="Times,serif" font-size="14" text-anchor="middle">StatsComponent</text></g><g id="edge3" class="edge"><title>StatsModule-&gt;StatsComponent</title><path fill="none" stroke="#000" stroke-dasharray="5 2" d="M253,-187.1061C253,-187.1061 253,-205.991 253,-205.991"/><polygon fill="#000" stroke="#000" points="249.5 -205.991 253 -215.991 256.5 -205.991 249.5 -205.991"/></g><g id="node3" class="node"><title>StatsRoutingModule</title><polygon fill="#8dd3c7" stroke="#000" points="247.891 -122 244.891 -126 223.891 -126 220.891 -122 116.109 -122 116.109 -86 247.891 -86 247.891 -122"/><text x="182" y="-99.8" fill="#000" font-family="Times,serif" font-size="14" text-anchor="middle">StatsRoutingModule</text></g><g id="edge2" class="edge"><title>StatsRoutingModule-&gt;StatsModule</title><path fill="none" stroke="#000" d="M228.7795,-122.1061C228.7795,-122.1061 228.7795,-140.991 228.7795,-140.991"/><polygon fill="#000" stroke="#000" points="225.28 -140.991 228.78 -150.991 232.28 -140.991 225.28 -140.991"/></g></g></svg>