<svg xmlns="http://www.w3.org/2000/svg" xmlns:xlink="http://www.w3.org/1999/xlink" width="672" height="284pt" viewBox="0 0 504 284"><g id="graph0" class="graph" transform="scale(1 1) rotate(0) translate(4 280)"><title>dependencies</title><polygon fill="#fff" stroke="transparent" points="-4 4 -4 -280 500 -280 500 4 -4 4"/><text x="227.009" y="-42.4" fill="#000" font-family="sans-serif" font-size="14" font-weight="bold" text-anchor="start">Legend</text><polygon fill="#ffffb3" stroke="transparent" points="14 -10 14 -30 34 -30 34 -10 14 -10"/><text x="37.629" y="-15.4" fill="#000" font-family="sans-serif" font-size="14" text-anchor="start">Declarations</text><polygon fill="#8dd3c7" stroke="transparent" points="127 -10 127 -30 147 -30 147 -10 127 -10"/><text x="150.725" y="-15.4" fill="#000" font-family="sans-serif" font-size="14" text-anchor="start">Module</text><polygon fill="#80b1d3" stroke="transparent" points="213 -10 213 -30 233 -30 233 -10 213 -10"/><text x="236.781" y="-15.4" fill="#000" font-family="sans-serif" font-size="14" text-anchor="start">Bootstrap</text><polygon fill="#fdb462" stroke="transparent" points="310 -10 310 -30 330 -30 330 -10 310 -10"/><text x="333.673" y="-15.4" fill="#000" font-family="sans-serif" font-size="14" text-anchor="start">Providers</text><polygon fill="#fb8072" stroke="transparent" points="406 -10 406 -30 426 -30 426 -10 406 -10"/><text x="429.726" y="-15.4" fill="#000" font-family="sans-serif" font-size="14" text-anchor="start">Exports</text><g id="clust1" class="cluster"><title>cluster_DashboardModule</title><polygon fill="none" stroke="#000" stroke-dasharray="1 5" points="66 -70 66 -268 430 -268 430 -70 66 -70"/></g><g id="clust2" class="cluster"><title>cluster_DashboardModule_declarations</title><polygon fill="none" stroke="#000" points="264 -78 264 -130 422 -130 422 -78 264 -78"/></g><g id="clust4" class="cluster"><title>cluster_DashboardModule_imports</title><polygon fill="none" stroke="#000" points="74 -78 74 -130 256 -130 256 -78 74 -78"/></g><g id="clust5" class="cluster"><title>cluster_DashboardModule_exports</title><polygon fill="none" stroke="#000" points="172 -208 172 -260 334 -260 334 -208 172 -208"/></g><g id="node1" class="node"><title>DashboardComponent</title><polygon fill="#ffffb3" stroke="#000" points="413.973 -122 272.027 -122 272.027 -86 413.973 -86 413.973 -122"/><text x="343" y="-99.8" fill="#000" font-family="Times,serif" font-size="14" text-anchor="middle">DashboardComponent</text></g><g id="node2" class="node"><title>DashboardModule</title><polygon fill="#8dd3c7" stroke="#000" points="313.191 -187 310.191 -191 289.191 -191 286.191 -187 192.809 -187 192.809 -151 313.191 -151 313.191 -187"/><text x="253" y="-164.8" fill="#000" font-family="Times,serif" font-size="14" text-anchor="middle">DashboardModule</text></g><g id="edge1" class="edge"><title>DashboardComponent-&gt;DashboardModule</title><path fill="none" stroke="#000" d="M292.5544,-122.1061C292.5544,-122.1061 292.5544,-140.991 292.5544,-140.991"/><polygon fill="#000" stroke="#000" points="289.054 -140.991 292.554 -150.991 296.054 -140.991 289.054 -140.991"/></g><g id="node4" class="node"><title>DashboardComponent</title><polygon fill="#fb8072" stroke="#000" points="325.974 -252 180.026 -252 180.026 -216 325.974 -216 325.974 -252"/><text x="253" y="-229.8" fill="#000" font-family="Times,serif" font-size="14" text-anchor="middle">DashboardComponent</text></g><g id="edge3" class="edge"><title>DashboardModule-&gt;DashboardComponent</title><path fill="none" stroke="#000" stroke-dasharray="5 2" d="M253,-187.1061C253,-187.1061 253,-205.991 253,-205.991"/><polygon fill="#000" stroke="#000" points="249.5 -205.991 253 -215.991 256.5 -205.991 249.5 -205.991"/></g><g id="node3" class="node"><title>DashboardRoutingModule</title><polygon fill="#8dd3c7" stroke="#000" points="247.809 -122 244.809 -126 223.809 -126 220.809 -122 82.191 -122 82.191 -86 247.809 -86 247.809 -122"/><text x="165" y="-99.8" fill="#000" font-family="Times,serif" font-size="14" text-anchor="middle">DashboardRoutingModule</text></g><g id="edge2" class="edge"><title>DashboardRoutingModule-&gt;DashboardModule</title><path fill="none" stroke="#000" d="M220.2795,-122.1061C220.2795,-122.1061 220.2795,-140.991 220.2795,-140.991"/><polygon fill="#000" stroke="#000" points="216.78 -140.991 220.28 -150.991 223.78 -140.991 216.78 -140.991"/></g></g></svg>