<svg xmlns="http://www.w3.org/2000/svg" xmlns:xlink="http://www.w3.org/1999/xlink" width="672" height="284pt" viewBox="0 0 504 284"><g id="graph0" class="graph" transform="scale(1 1) rotate(0) translate(4 280)"><title>dependencies</title><polygon fill="#fff" stroke="transparent" points="-4 4 -4 -280 500 -280 500 4 -4 4"/><text x="227.009" y="-42.4" fill="#000" font-family="sans-serif" font-size="14" font-weight="bold" text-anchor="start">Legend</text><polygon fill="#ffffb3" stroke="transparent" points="14 -10 14 -30 34 -30 34 -10 14 -10"/><text x="37.629" y="-15.4" fill="#000" font-family="sans-serif" font-size="14" text-anchor="start">Declarations</text><polygon fill="#8dd3c7" stroke="transparent" points="127 -10 127 -30 147 -30 147 -10 127 -10"/><text x="150.725" y="-15.4" fill="#000" font-family="sans-serif" font-size="14" text-anchor="start">Module</text><polygon fill="#80b1d3" stroke="transparent" points="213 -10 213 -30 233 -30 233 -10 213 -10"/><text x="236.781" y="-15.4" fill="#000" font-family="sans-serif" font-size="14" text-anchor="start">Bootstrap</text><polygon fill="#fdb462" stroke="transparent" points="310 -10 310 -30 330 -30 330 -10 310 -10"/><text x="333.673" y="-15.4" fill="#000" font-family="sans-serif" font-size="14" text-anchor="start">Providers</text><polygon fill="#fb8072" stroke="transparent" points="406 -10 406 -30 426 -30 426 -10 406 -10"/><text x="429.726" y="-15.4" fill="#000" font-family="sans-serif" font-size="14" text-anchor="start">Exports</text><g id="clust1" class="cluster"><title>cluster_FormsModule</title><polygon fill="none" stroke="#000" stroke-dasharray="1 5" points="91 -70 91 -268 405 -268 405 -70 91 -70"/></g><g id="clust2" class="cluster"><title>cluster_FormsModule_declarations</title><polygon fill="none" stroke="#000" points="263 -78 263 -130 397 -130 397 -78 263 -78"/></g><g id="clust4" class="cluster"><title>cluster_FormsModule_imports</title><polygon fill="none" stroke="#000" points="99 -78 99 -130 255 -130 255 -78 99 -78"/></g><g id="clust5" class="cluster"><title>cluster_FormsModule_exports</title><polygon fill="none" stroke="#000" points="185 -208 185 -260 321 -260 321 -208 185 -208"/></g><g id="node1" class="node"><title>FormsComponent</title><polygon fill="#ffffb3" stroke="#000" points="388.611 -122 271.389 -122 271.389 -86 388.611 -86 388.611 -122"/><text x="330" y="-99.8" fill="#000" font-family="Times,serif" font-size="14" text-anchor="middle">FormsComponent</text></g><g id="node2" class="node"><title>FormsModule</title><polygon fill="#8dd3c7" stroke="#000" points="300.829 -187 297.829 -191 276.829 -191 273.829 -187 205.171 -187 205.171 -151 300.829 -151 300.829 -187"/><text x="253" y="-164.8" fill="#000" font-family="Times,serif" font-size="14" text-anchor="middle">FormsModule</text></g><g id="edge1" class="edge"><title>FormsComponent-&gt;FormsModule</title><path fill="none" stroke="#000" d="M286.0544,-122.1061C286.0544,-122.1061 286.0544,-140.991 286.0544,-140.991"/><polygon fill="#000" stroke="#000" points="282.554 -140.991 286.054 -150.991 289.554 -140.991 282.554 -140.991"/></g><g id="node4" class="node"><title>FormsComponent</title><polygon fill="#fb8072" stroke="#000" points="313.111 -252 192.889 -252 192.889 -216 313.111 -216 313.111 -252"/><text x="253" y="-229.8" fill="#000" font-family="Times,serif" font-size="14" text-anchor="middle">FormsComponent</text></g><g id="edge3" class="edge"><title>FormsModule-&gt;FormsComponent</title><path fill="none" stroke="#000" stroke-dasharray="5 2" d="M253,-187.1061C253,-187.1061 253,-205.991 253,-205.991"/><polygon fill="#000" stroke="#000" points="249.5 -205.991 253 -215.991 256.5 -205.991 249.5 -205.991"/></g><g id="node3" class="node"><title>FormsRoutingModule</title><polygon fill="#8dd3c7" stroke="#000" points="247.447 -122 244.447 -126 223.447 -126 220.447 -122 106.553 -122 106.553 -86 247.447 -86 247.447 -122"/><text x="177" y="-99.8" fill="#000" font-family="Times,serif" font-size="14" text-anchor="middle">FormsRoutingModule</text></g><g id="edge2" class="edge"><title>FormsRoutingModule-&gt;FormsModule</title><path fill="none" stroke="#000" d="M226.2795,-122.1061C226.2795,-122.1061 226.2795,-140.991 226.2795,-140.991"/><polygon fill="#000" stroke="#000" points="222.78 -140.991 226.28 -150.991 229.78 -140.991 222.78 -140.991"/></g></g></svg>