<svg xmlns="http://www.w3.org/2000/svg" xmlns:xlink="http://www.w3.org/1999/xlink" width="672" height="284pt" viewBox="0 0 504 284"><g id="graph0" class="graph" transform="scale(1 1) rotate(0) translate(4 280)"><title>dependencies</title><polygon fill="#fff" stroke="transparent" points="-4 4 -4 -280 500 -280 500 4 -4 4"/><text x="227.009" y="-42.4" fill="#000" font-family="sans-serif" font-size="14" font-weight="bold" text-anchor="start">Legend</text><polygon fill="#ffffb3" stroke="transparent" points="14 -10 14 -30 34 -30 34 -10 14 -10"/><text x="37.629" y="-15.4" fill="#000" font-family="sans-serif" font-size="14" text-anchor="start">Declarations</text><polygon fill="#8dd3c7" stroke="transparent" points="127 -10 127 -30 147 -30 147 -10 127 -10"/><text x="150.725" y="-15.4" fill="#000" font-family="sans-serif" font-size="14" text-anchor="start">Module</text><polygon fill="#80b1d3" stroke="transparent" points="213 -10 213 -30 233 -30 233 -10 213 -10"/><text x="236.781" y="-15.4" fill="#000" font-family="sans-serif" font-size="14" text-anchor="start">Bootstrap</text><polygon fill="#fdb462" stroke="transparent" points="310 -10 310 -30 330 -30 330 -10 310 -10"/><text x="333.673" y="-15.4" fill="#000" font-family="sans-serif" font-size="14" text-anchor="start">Providers</text><polygon fill="#fb8072" stroke="transparent" points="406 -10 406 -30 426 -30 426 -10 406 -10"/><text x="429.726" y="-15.4" fill="#000" font-family="sans-serif" font-size="14" text-anchor="start">Exports</text><g id="clust1" class="cluster"><title>cluster_TypographyModule</title><polygon fill="none" stroke="#000" stroke-dasharray="1 5" points="58 -70 58 -268 438 -268 438 -70 58 -70"/></g><g id="clust2" class="cluster"><title>cluster_TypographyModule_declarations</title><polygon fill="none" stroke="#000" points="264 -78 264 -130 430 -130 430 -78 264 -78"/></g><g id="clust4" class="cluster"><title>cluster_TypographyModule_imports</title><polygon fill="none" stroke="#000" points="66 -78 66 -130 256 -130 256 -78 66 -78"/></g><g id="clust5" class="cluster"><title>cluster_TypographyModule_exports</title><polygon fill="none" stroke="#000" points="168 -208 168 -260 338 -260 338 -208 168 -208"/></g><g id="node1" class="node"><title>TypographyComponent</title><polygon fill="#ffffb3" stroke="#000" points="421.76 -122 272.24 -122 272.24 -86 421.76 -86 421.76 -122"/><text x="347" y="-99.8" fill="#000" font-family="Times,serif" font-size="14" text-anchor="middle">TypographyComponent</text></g><g id="node2" class="node"><title>TypographyModule</title><polygon fill="#8dd3c7" stroke="#000" points="316.978 -187 313.978 -191 292.978 -191 289.978 -187 189.022 -187 189.022 -151 316.978 -151 316.978 -187"/><text x="253" y="-164.8" fill="#000" font-family="Times,serif" font-size="14" text-anchor="middle">TypographyModule</text></g><g id="edge1" class="edge"><title>TypographyComponent-&gt;TypographyModule</title><path fill="none" stroke="#000" d="M294.5544,-122.1061C294.5544,-122.1061 294.5544,-140.991 294.5544,-140.991"/><polygon fill="#000" stroke="#000" points="291.054 -140.991 294.554 -150.991 298.054 -140.991 291.054 -140.991"/></g><g id="node4" class="node"><title>TypographyComponent</title><polygon fill="#fb8072" stroke="#000" points="329.76 -252 176.24 -252 176.24 -216 329.76 -216 329.76 -252"/><text x="253" y="-229.8" fill="#000" font-family="Times,serif" font-size="14" text-anchor="middle">TypographyComponent</text></g><g id="edge3" class="edge"><title>TypographyModule-&gt;TypographyComponent</title><path fill="none" stroke="#000" stroke-dasharray="5 2" d="M253,-187.1061C253,-187.1061 253,-205.991 253,-205.991"/><polygon fill="#000" stroke="#000" points="249.5 -205.991 253 -215.991 256.5 -205.991 249.5 -205.991"/></g><g id="node3" class="node"><title>TypographyRoutingModule</title><polygon fill="#8dd3c7" stroke="#000" points="247.595 -122 244.595 -126 223.595 -126 220.595 -122 74.405 -122 74.405 -86 247.595 -86 247.595 -122"/><text x="161" y="-99.8" fill="#000" font-family="Times,serif" font-size="14" text-anchor="middle">TypographyRoutingModule</text></g><g id="edge2" class="edge"><title>TypographyRoutingModule-&gt;TypographyModule</title><path fill="none" stroke="#000" d="M218.2795,-122.1061C218.2795,-122.1061 218.2795,-140.991 218.2795,-140.991"/><polygon fill="#000" stroke="#000" points="214.78 -140.991 218.28 -150.991 221.78 -140.991 214.78 -140.991"/></g></g></svg>