<svg xmlns="http://www.w3.org/2000/svg" xmlns:xlink="http://www.w3.org/1999/xlink" width="672" height="284pt" viewBox="0 0 504 284"><g id="graph0" class="graph" transform="scale(1 1) rotate(0) translate(4 280)"><title>dependencies</title><polygon fill="#fff" stroke="transparent" points="-4 4 -4 -280 500 -280 500 4 -4 4"/><text x="227.009" y="-42.4" fill="#000" font-family="sans-serif" font-size="14" font-weight="bold" text-anchor="start">Legend</text><polygon fill="#ffffb3" stroke="transparent" points="14 -10 14 -30 34 -30 34 -10 14 -10"/><text x="37.629" y="-15.4" fill="#000" font-family="sans-serif" font-size="14" text-anchor="start">Declarations</text><polygon fill="#8dd3c7" stroke="transparent" points="127 -10 127 -30 147 -30 147 -10 127 -10"/><text x="150.725" y="-15.4" fill="#000" font-family="sans-serif" font-size="14" text-anchor="start">Module</text><polygon fill="#80b1d3" stroke="transparent" points="213 -10 213 -30 233 -30 233 -10 213 -10"/><text x="236.781" y="-15.4" fill="#000" font-family="sans-serif" font-size="14" text-anchor="start">Bootstrap</text><polygon fill="#fdb462" stroke="transparent" points="310 -10 310 -30 330 -30 330 -10 310 -10"/><text x="333.673" y="-15.4" fill="#000" font-family="sans-serif" font-size="14" text-anchor="start">Providers</text><polygon fill="#fb8072" stroke="transparent" points="406 -10 406 -30 426 -30 426 -10 406 -10"/><text x="429.726" y="-15.4" fill="#000" font-family="sans-serif" font-size="14" text-anchor="start">Exports</text><g id="clust1" class="cluster"><title>cluster_CardsModule</title><polygon fill="none" stroke="#000" stroke-dasharray="1 5" points="94 -70 94 -268 402 -268 402 -70 94 -70"/></g><g id="clust2" class="cluster"><title>cluster_CardsModule_declarations</title><polygon fill="none" stroke="#000" points="264 -78 264 -130 394 -130 394 -78 264 -78"/></g><g id="clust4" class="cluster"><title>cluster_CardsModule_imports</title><polygon fill="none" stroke="#000" points="102 -78 102 -130 256 -130 256 -78 102 -78"/></g><g id="clust5" class="cluster"><title>cluster_CardsModule_exports</title><polygon fill="none" stroke="#000" points="186 -208 186 -260 320 -260 320 -208 186 -208"/></g><g id="node1" class="node"><title>CardsComponent</title><polygon fill="#ffffb3" stroke="#000" points="385.989 -122 272.011 -122 272.011 -86 385.989 -86 385.989 -122"/><text x="329" y="-99.8" fill="#000" font-family="Times,serif" font-size="14" text-anchor="middle">CardsComponent</text></g><g id="node2" class="node"><title>CardsModule</title><polygon fill="#8dd3c7" stroke="#000" points="299.206 -187 296.206 -191 275.206 -191 272.206 -187 206.794 -187 206.794 -151 299.206 -151 299.206 -187"/><text x="253" y="-164.8" fill="#000" font-family="Times,serif" font-size="14" text-anchor="middle">CardsModule</text></g><g id="edge1" class="edge"><title>CardsComponent-&gt;CardsModule</title><path fill="none" stroke="#000" d="M285.5544,-122.1061C285.5544,-122.1061 285.5544,-140.991 285.5544,-140.991"/><polygon fill="#000" stroke="#000" points="282.054 -140.991 285.554 -150.991 289.054 -140.991 282.054 -140.991"/></g><g id="node4" class="node"><title>CardsComponent</title><polygon fill="#fb8072" stroke="#000" points="311.99 -252 194.01 -252 194.01 -216 311.99 -216 311.99 -252"/><text x="253" y="-229.8" fill="#000" font-family="Times,serif" font-size="14" text-anchor="middle">CardsComponent</text></g><g id="edge3" class="edge"><title>CardsModule-&gt;CardsComponent</title><path fill="none" stroke="#000" stroke-dasharray="5 2" d="M253,-187.1061C253,-187.1061 253,-205.991 253,-205.991"/><polygon fill="#000" stroke="#000" points="249.5 -205.991 253 -215.991 256.5 -205.991 249.5 -205.991"/></g><g id="node3" class="node"><title>CardsRoutingModule</title><polygon fill="#8dd3c7" stroke="#000" points="247.824 -122 244.824 -126 223.824 -126 220.824 -122 110.176 -122 110.176 -86 247.824 -86 247.824 -122"/><text x="179" y="-99.8" fill="#000" font-family="Times,serif" font-size="14" text-anchor="middle">CardsRoutingModule</text></g><g id="edge2" class="edge"><title>CardsRoutingModule-&gt;CardsModule</title><path fill="none" stroke="#000" d="M227.2795,-122.1061C227.2795,-122.1061 227.2795,-140.991 227.2795,-140.991"/><polygon fill="#000" stroke="#000" points="223.78 -140.991 227.28 -150.991 230.78 -140.991 223.78 -140.991"/></g></g></svg>