<svg xmlns="http://www.w3.org/2000/svg" xmlns:xlink="http://www.w3.org/1999/xlink" width="672" height="284pt" viewBox="0 0 504 284"><g id="graph0" class="graph" transform="scale(1 1) rotate(0) translate(4 280)"><title>dependencies</title><polygon fill="#fff" stroke="transparent" points="-4 4 -4 -280 500 -280 500 4 -4 4"/><text x="227.009" y="-42.4" fill="#000" font-family="sans-serif" font-size="14" font-weight="bold" text-anchor="start">Legend</text><polygon fill="#ffffb3" stroke="transparent" points="14 -10 14 -30 34 -30 34 -10 14 -10"/><text x="37.629" y="-15.4" fill="#000" font-family="sans-serif" font-size="14" text-anchor="start">Declarations</text><polygon fill="#8dd3c7" stroke="transparent" points="127 -10 127 -30 147 -30 147 -10 127 -10"/><text x="150.725" y="-15.4" fill="#000" font-family="sans-serif" font-size="14" text-anchor="start">Module</text><polygon fill="#80b1d3" stroke="transparent" points="213 -10 213 -30 233 -30 233 -10 213 -10"/><text x="236.781" y="-15.4" fill="#000" font-family="sans-serif" font-size="14" text-anchor="start">Bootstrap</text><polygon fill="#fdb462" stroke="transparent" points="310 -10 310 -30 330 -30 330 -10 310 -10"/><text x="333.673" y="-15.4" fill="#000" font-family="sans-serif" font-size="14" text-anchor="start">Providers</text><polygon fill="#fb8072" stroke="transparent" points="406 -10 406 -30 426 -30 426 -10 406 -10"/><text x="429.726" y="-15.4" fill="#000" font-family="sans-serif" font-size="14" text-anchor="start">Exports</text><g id="clust1" class="cluster"><title>cluster_IconsModule</title><polygon fill="none" stroke="#000" stroke-dasharray="1 5" points="97 -70 97 -268 399 -268 399 -70 97 -70"/></g><g id="clust2" class="cluster"><title>cluster_IconsModule_declarations</title><polygon fill="none" stroke="#000" points="263 -78 263 -130 391 -130 391 -78 263 -78"/></g><g id="clust4" class="cluster"><title>cluster_IconsModule_imports</title><polygon fill="none" stroke="#000" points="105 -78 105 -130 255 -130 255 -78 105 -78"/></g><g id="clust5" class="cluster"><title>cluster_IconsModule_exports</title><polygon fill="none" stroke="#000" points="186 -208 186 -260 318 -260 318 -208 186 -208"/></g><g id="node1" class="node"><title>IconsComponent</title><polygon fill="#ffffb3" stroke="#000" points="382.653 -122 271.347 -122 271.347 -86 382.653 -86 382.653 -122"/><text x="327" y="-99.8" fill="#000" font-family="Times,serif" font-size="14" text-anchor="middle">IconsComponent</text></g><g id="node2" class="node"><title>IconsModule</title><polygon fill="#8dd3c7" stroke="#000" points="296.87 -187 293.87 -191 272.87 -191 269.87 -187 207.13 -187 207.13 -151 296.87 -151 296.87 -187"/><text x="252" y="-164.8" fill="#000" font-family="Times,serif" font-size="14" text-anchor="middle">IconsModule</text></g><g id="edge1" class="edge"><title>IconsComponent-&gt;IconsModule</title><path fill="none" stroke="#000" d="M284.0544,-122.1061C284.0544,-122.1061 284.0544,-140.991 284.0544,-140.991"/><polygon fill="#000" stroke="#000" points="280.554 -140.991 284.054 -150.991 287.554 -140.991 280.554 -140.991"/></g><g id="node4" class="node"><title>IconsComponent</title><polygon fill="#fb8072" stroke="#000" points="309.652 -252 194.348 -252 194.348 -216 309.652 -216 309.652 -252"/><text x="252" y="-229.8" fill="#000" font-family="Times,serif" font-size="14" text-anchor="middle">IconsComponent</text></g><g id="edge3" class="edge"><title>IconsModule-&gt;IconsComponent</title><path fill="none" stroke="#000" stroke-dasharray="5 2" d="M252,-187.1061C252,-187.1061 252,-205.991 252,-205.991"/><polygon fill="#000" stroke="#000" points="248.5 -205.991 252 -215.991 255.5 -205.991 248.5 -205.991"/></g><g id="node3" class="node"><title>IconsRoutingModule</title><polygon fill="#8dd3c7" stroke="#000" points="247.487 -122 244.487 -126 223.487 -126 220.487 -122 112.513 -122 112.513 -86 247.487 -86 247.487 -122"/><text x="180" y="-99.8" fill="#000" font-family="Times,serif" font-size="14" text-anchor="middle">IconsRoutingModule</text></g><g id="edge2" class="edge"><title>IconsRoutingModule-&gt;IconsModule</title><path fill="none" stroke="#000" d="M227.2795,-122.1061C227.2795,-122.1061 227.2795,-140.991 227.2795,-140.991"/><polygon fill="#000" stroke="#000" points="223.78 -140.991 227.28 -150.991 230.78 -140.991 223.78 -140.991"/></g></g></svg>