<svg xmlns="http://www.w3.org/2000/svg" xmlns:xlink="http://www.w3.org/1999/xlink" width="5743pt" height="298pt" viewBox="0 0 5743 298"><g id="graph0" class="graph" transform="scale(1 1) rotate(0) translate(4 294)"><title>dependencies</title><polygon fill="#fff" stroke="transparent" points="-4 4 -4 -294 5739 -294 5739 4 -4 4"/><text x="2846.509" y="-42.4" fill="#000" font-family="sans-serif" font-size="14" font-weight="bold" text-anchor="start">Legend</text><polygon fill="#ffffb3" stroke="transparent" points="2633.5 -10 2633.5 -30 2653.5 -30 2653.5 -10 2633.5 -10"/><text x="2657.129" y="-15.4" fill="#000" font-family="sans-serif" font-size="14" text-anchor="start">Declarations</text><polygon fill="#8dd3c7" stroke="transparent" points="2746.5 -10 2746.5 -30 2766.5 -30 2766.5 -10 2746.5 -10"/><text x="2770.225" y="-15.4" fill="#000" font-family="sans-serif" font-size="14" text-anchor="start">Module</text><polygon fill="#80b1d3" stroke="transparent" points="2832.5 -10 2832.5 -30 2852.5 -30 2852.5 -10 2832.5 -10"/><text x="2856.281" y="-15.4" fill="#000" font-family="sans-serif" font-size="14" text-anchor="start">Bootstrap</text><polygon fill="#fdb462" stroke="transparent" points="2929.5 -10 2929.5 -30 2949.5 -30 2949.5 -10 2929.5 -10"/><text x="2953.173" y="-15.4" fill="#000" font-family="sans-serif" font-size="14" text-anchor="start">Providers</text><polygon fill="#fb8072" stroke="transparent" points="3025.5 -10 3025.5 -30 3045.5 -30 3045.5 -10 3025.5 -10"/><text x="3049.226" y="-15.4" fill="#000" font-family="sans-serif" font-size="14" text-anchor="start">Exports</text><g id="clust1" class="cluster"><title>cluster_AppModule</title><polygon fill="none" stroke="#000" stroke-dasharray="1 5" points="8 -70 8 -282 298 -282 298 -70 8 -70"/></g><g id="clust2" class="cluster"><title>cluster_AppModule_declarations</title><polygon fill="none" stroke="#000" points="168 -78 168 -130 290 -130 290 -78 168 -78"/></g><g id="clust4" class="cluster"><title>cluster_AppModule_imports</title><polygon fill="none" stroke="#000" points="16 -78 16 -130 160 -130 160 -78 16 -78"/></g><g id="clust6" class="cluster"><title>cluster_AppModule_bootstrap</title><polygon fill="none" stroke="#000" points="96 -222 96 -274 220 -274 220 -222 96 -222"/></g><g id="clust14" class="cluster"><title>cluster_AuthModule</title><polygon fill="none" stroke="#000" stroke-dasharray="1 5" points="472 -146 472 -274 1296 -274 1296 -146 472 -146"/></g><g id="clust15" class="cluster"><title>cluster_AuthModule_declarations</title><polygon fill="none" stroke="#000" points="750 -154 750 -206 1288 -206 1288 -154 750 -154"/></g><g id="clust20" class="cluster"><title>cluster_AuthModule_imports</title><polygon fill="none" stroke="#000" points="480 -154 480 -206 742 -206 742 -154 480 -154"/></g><g id="clust30" class="cluster"><title>cluster_BlankModule</title><polygon fill="none" stroke="#000" stroke-dasharray="1 5" points="1304 -70 1304 -282 1612 -282 1612 -70 1304 -70"/></g><g id="clust31" class="cluster"><title>cluster_BlankModule_declarations</title><polygon fill="none" stroke="#000" points="1474 -78 1474 -130 1604 -130 1604 -78 1474 -78"/></g><g id="clust33" class="cluster"><title>cluster_BlankModule_imports</title><polygon fill="none" stroke="#000" points="1312 -78 1312 -130 1466 -130 1466 -78 1312 -78"/></g><g id="clust34" class="cluster"><title>cluster_BlankModule_exports</title><polygon fill="none" stroke="#000" points="1396 -222 1396 -274 1530 -274 1530 -222 1396 -222"/></g><g id="clust43" class="cluster"><title>cluster_CardsModule</title><polygon fill="none" stroke="#000" stroke-dasharray="1 5" points="1620 -70 1620 -282 1928 -282 1928 -70 1620 -70"/></g><g id="clust44" class="cluster"><title>cluster_CardsModule_declarations</title><polygon fill="none" stroke="#000" points="1790 -78 1790 -130 1920 -130 1920 -78 1790 -78"/></g><g id="clust46" class="cluster"><title>cluster_CardsModule_imports</title><polygon fill="none" stroke="#000" points="1628 -78 1628 -130 1782 -130 1782 -78 1628 -78"/></g><g id="clust47" class="cluster"><title>cluster_CardsModule_exports</title><polygon fill="none" stroke="#000" points="1712 -222 1712 -274 1846 -274 1846 -222 1712 -222"/></g><g id="clust56" class="cluster"><title>cluster_ChartjsModule</title><polygon fill="none" stroke="#000" stroke-dasharray="1 5" points="1936 -70 1936 -282 2260 -282 2260 -70 1936 -70"/></g><g id="clust57" class="cluster"><title>cluster_ChartjsModule_declarations</title><polygon fill="none" stroke="#000" points="2114 -78 2114 -130 2252 -130 2252 -78 2114 -78"/></g><g id="clust59" class="cluster"><title>cluster_ChartjsModule_imports</title><polygon fill="none" stroke="#000" points="1944 -78 1944 -130 2106 -130 2106 -78 1944 -78"/></g><g id="clust60" class="cluster"><title>cluster_ChartjsModule_exports</title><polygon fill="none" stroke="#000" points="2032 -222 2032 -274 2174 -274 2174 -222 2032 -222"/></g><g id="clust69" class="cluster"><title>cluster_ContentModule</title><polygon fill="none" stroke="#000" stroke-dasharray="1 5" points="2268 -70 2268 -282 2598 -282 2598 -70 2268 -70"/></g><g id="clust70" class="cluster"><title>cluster_ContentModule_declarations</title><polygon fill="none" stroke="#000" points="2448 -78 2448 -130 2590 -130 2590 -78 2448 -78"/></g><g id="clust72" class="cluster"><title>cluster_ContentModule_imports</title><polygon fill="none" stroke="#000" points="2276 -78 2276 -130 2440 -130 2440 -78 2276 -78"/></g><g id="clust73" class="cluster"><title>cluster_ContentModule_exports</title><polygon fill="none" stroke="#000" points="2364 -222 2364 -274 2510 -274 2510 -222 2364 -222"/></g><g id="clust82" class="cluster"><title>cluster_DashboardModule</title><polygon fill="none" stroke="#000" stroke-dasharray="1 5" points="2606 -70 2606 -282 2970 -282 2970 -70 2606 -70"/></g><g id="clust83" class="cluster"><title>cluster_DashboardModule_declarations</title><polygon fill="none" stroke="#000" points="2804 -78 2804 -130 2962 -130 2962 -78 2804 -78"/></g><g id="clust85" class="cluster"><title>cluster_DashboardModule_imports</title><polygon fill="none" stroke="#000" points="2614 -78 2614 -130 2796 -130 2796 -78 2614 -78"/></g><g id="clust86" class="cluster"><title>cluster_DashboardModule_exports</title><polygon fill="none" stroke="#000" points="2712 -222 2712 -274 2874 -274 2874 -222 2712 -222"/></g><g id="clust95" class="cluster"><title>cluster_FormsModule</title><polygon fill="none" stroke="#000" stroke-dasharray="1 5" points="306 -70 306 -138 764 -138 764 -70 306 -70"/></g><g id="clust96" class="cluster"><title>cluster_FormsModule_declarations</title><polygon fill="none" stroke="#000" points="622 -78 622 -130 756 -130 756 -78 622 -78"/></g><g id="clust98" class="cluster"><title>cluster_FormsModule_imports</title><polygon fill="none" stroke="#000" points="458 -78 458 -130 614 -130 614 -78 458 -78"/></g><g id="clust99" class="cluster"><title>cluster_FormsModule_exports</title><polygon fill="none" stroke="#000" points="314 -78 314 -130 450 -130 450 -78 314 -78"/></g><g id="clust108" class="cluster"><title>cluster_IconsModule</title><polygon fill="none" stroke="#000" stroke-dasharray="1 5" points="2978 -70 2978 -282 3280 -282 3280 -70 2978 -70"/></g><g id="clust109" class="cluster"><title>cluster_IconsModule_declarations</title><polygon fill="none" stroke="#000" points="3144 -78 3144 -130 3272 -130 3272 -78 3144 -78"/></g><g id="clust111" class="cluster"><title>cluster_IconsModule_imports</title><polygon fill="none" stroke="#000" points="2986 -78 2986 -130 3136 -130 3136 -78 2986 -78"/></g><g id="clust112" class="cluster"><title>cluster_IconsModule_exports</title><polygon fill="none" stroke="#000" points="3067 -222 3067 -274 3199 -274 3199 -222 3067 -222"/></g><g id="clust121" class="cluster"><title>cluster_PagesModule</title><polygon fill="none" stroke="#000" stroke-dasharray="1 5" points="3288 -70 3288 -282 3712 -282 3712 -70 3288 -70"/></g><g id="clust122" class="cluster"><title>cluster_PagesModule_declarations</title><polygon fill="none" stroke="#000" points="3296 -78 3296 -130 3426 -130 3426 -78 3296 -78"/></g><g id="clust124" class="cluster"><title>cluster_PagesModule_imports</title><polygon fill="none" stroke="#000" points="3434 -78 3434 -130 3704 -130 3704 -78 3434 -78"/></g><g id="clust125" class="cluster"><title>cluster_PagesModule_exports</title><polygon fill="none" stroke="#000" points="3444 -222 3444 -274 3578 -274 3578 -222 3444 -222"/></g><g id="clust134" class="cluster"><title>cluster_SharedModule</title><polygon fill="none" stroke="#000" stroke-dasharray="1 5" points="3720 -146 3720 -214 4311 -214 4311 -146 3720 -146"/></g><g id="clust135" class="cluster"><title>cluster_SharedModule_declarations</title><polygon fill="none" stroke="#000" points="4023 -154 4023 -206 4303 -206 4303 -154 4023 -154"/></g><g id="clust139" class="cluster"><title>cluster_SharedModule_exports</title><polygon fill="none" stroke="#000" points="3728 -154 3728 -206 4015 -206 4015 -154 3728 -154"/></g><g id="clust142" class="cluster"><title>cluster_StatsModule</title><polygon fill="none" stroke="#000" stroke-dasharray="1 5" points="4319 -70 4319 -282 4615 -282 4615 -70 4319 -70"/></g><g id="clust143" class="cluster"><title>cluster_StatsModule_declarations</title><polygon fill="none" stroke="#000" points="4483 -78 4483 -130 4607 -130 4607 -78 4483 -78"/></g><g id="clust145" class="cluster"><title>cluster_StatsModule_imports</title><polygon fill="none" stroke="#000" points="4327 -78 4327 -130 4475 -130 4475 -78 4327 -78"/></g><g id="clust146" class="cluster"><title>cluster_StatsModule_exports</title><polygon fill="none" stroke="#000" points="4408 -222 4408 -274 4536 -274 4536 -222 4408 -222"/></g><g id="clust155" class="cluster"><title>cluster_TablesModule</title><polygon fill="none" stroke="#000" stroke-dasharray="1 5" points="4623 -70 4623 -282 4939 -282 4939 -70 4623 -70"/></g><g id="clust156" class="cluster"><title>cluster_TablesModule_declarations</title><polygon fill="none" stroke="#000" points="4797 -78 4797 -130 4931 -130 4931 -78 4797 -78"/></g><g id="clust158" class="cluster"><title>cluster_TablesModule_imports</title><polygon fill="none" stroke="#000" points="4631 -78 4631 -130 4789 -130 4789 -78 4631 -78"/></g><g id="clust159" class="cluster"><title>cluster_TablesModule_exports</title><polygon fill="none" stroke="#000" points="4717 -222 4717 -274 4855 -274 4855 -222 4717 -222"/></g><g id="clust168" class="cluster"><title>cluster_TypographyModule</title><polygon fill="none" stroke="#000" stroke-dasharray="1 5" points="4947 -70 4947 -282 5327 -282 5327 -70 4947 -70"/></g><g id="clust169" class="cluster"><title>cluster_TypographyModule_declarations</title><polygon fill="none" stroke="#000" points="5153 -78 5153 -130 5319 -130 5319 -78 5153 -78"/></g><g id="clust171" class="cluster"><title>cluster_TypographyModule_imports</title><polygon fill="none" stroke="#000" points="4955 -78 4955 -130 5145 -130 5145 -78 4955 -78"/></g><g id="clust172" class="cluster"><title>cluster_TypographyModule_exports</title><polygon fill="none" stroke="#000" points="5057 -222 5057 -274 5227 -274 5227 -222 5057 -222"/></g><g id="clust181" class="cluster"><title>cluster_UserinterfaceModule</title><polygon fill="none" stroke="#000" stroke-dasharray="1 5" points="5335 -70 5335 -282 5727 -282 5727 -70 5335 -70"/></g><g id="clust182" class="cluster"><title>cluster_UserinterfaceModule_declarations</title><polygon fill="none" stroke="#000" points="5547 -78 5547 -130 5719 -130 5719 -78 5547 -78"/></g><g id="clust184" class="cluster"><title>cluster_UserinterfaceModule_imports</title><polygon fill="none" stroke="#000" points="5343 -78 5343 -130 5539 -130 5539 -78 5343 -78"/></g><g id="clust185" class="cluster"><title>cluster_UserinterfaceModule_exports</title><polygon fill="none" stroke="#000" points="5448 -222 5448 -274 5624 -274 5624 -222 5448 -222"/></g><g id="node1" class="node"><title>AppComponent</title><polygon fill="#ffffb3" stroke="#000" points="281.94 -122 176.06 -122 176.06 -86 281.94 -86 281.94 -122"/><text x="229" y="-99.8" fill="#000" font-family="Times,serif" font-size="14" text-anchor="middle">AppComponent</text></g><g id="node2" class="node"><title>AppModule</title><polygon fill="#8dd3c7" stroke="#000" points="199.657 -198 196.657 -202 175.657 -202 172.657 -198 116.343 -198 116.343 -162 199.657 -162 199.657 -198"/><text x="158" y="-175.8" fill="#000" font-family="Times,serif" font-size="14" text-anchor="middle">AppModule</text></g><g id="edge1" class="edge"><title>AppComponent-&gt;AppModule</title><path fill="none" stroke="#000" d="M188.0544,-122.0109C188.0544,-122.0109 188.0544,-151.855 188.0544,-151.855"/><polygon fill="#000" stroke="#000" points="184.554 -151.855 188.054 -161.855 191.554 -151.855 184.554 -151.855"/></g><g id="node4" class="node"><title>AppComponent</title><polygon fill="#80b1d3" stroke="#000" points="212.439 -266 103.561 -266 103.561 -230 212.439 -230 212.439 -266"/><text x="158" y="-243.8" fill="#000" font-family="Times,serif" font-size="14" text-anchor="middle">AppComponent</text></g><g id="edge3" class="edge"><title>AppModule-&gt;AppComponent</title><path fill="none" stroke="#000" stroke-dasharray="1 5" d="M158,-198.2228C158,-198.2228 158,-219.7269 158,-219.7269"/><polygon fill="#000" stroke="#000" points="154.5 -219.727 158 -229.727 161.5 -219.727 154.5 -219.727"/></g><g id="node3" class="node"><title>AppRoutingModule</title><polygon fill="#8dd3c7" stroke="#000" points="152.274 -122 149.274 -126 128.274 -126 125.274 -122 23.726 -122 23.726 -86 152.274 -86 152.274 -122"/><text x="88" y="-99.8" fill="#000" font-family="Times,serif" font-size="14" text-anchor="middle">AppRoutingModule</text></g><g id="edge2" class="edge"><title>AppRoutingModule-&gt;AppModule</title><path fill="none" stroke="#000" d="M134.2795,-122.0109C134.2795,-122.0109 134.2795,-151.855 134.2795,-151.855"/><polygon fill="#000" stroke="#000" points="130.78 -151.855 134.28 -161.855 137.78 -151.855 130.78 -151.855"/></g><g id="node5" class="node"><title>ForgotComponent</title><polygon fill="#ffffb3" stroke="#000" points="1280.167 -198 1161.833 -198 1161.833 -162 1280.167 -162 1280.167 -198"/><text x="1221" y="-175.8" fill="#000" font-family="Times,serif" font-size="14" text-anchor="middle">ForgotComponent</text></g><g id="node9" class="node"><title>AuthModule</title><polygon fill="#8dd3c7" stroke="#000" points="929.548 -266 926.548 -270 905.548 -270 902.548 -266 842.452 -266 842.452 -230 929.548 -230 929.548 -266"/><text x="886" y="-243.8" fill="#000" font-family="Times,serif" font-size="14" text-anchor="middle">AuthModule</text></g><g id="edge4" class="edge"><title>ForgotComponent-&gt;AuthModule</title><path fill="none" stroke="#000" d="M1221,-198.2921C1221,-220.2057 1221,-254 1221,-254 1221,-254 939.7954,-254 939.7954,-254"/><polygon fill="#000" stroke="#000" points="939.795 -250.5 929.795 -254 939.795 -257.5 939.795 -250.5"/></g><g id="node6" class="node"><title>LoginComponent</title><polygon fill="#ffffb3" stroke="#000" points="1143.276 -198 1028.724 -198 1028.724 -162 1143.276 -162 1143.276 -198"/><text x="1086" y="-175.8" fill="#000" font-family="Times,serif" font-size="14" text-anchor="middle">LoginComponent</text></g><g id="edge5" class="edge"><title>LoginComponent-&gt;AuthModule</title><path fill="none" stroke="#000" d="M1086,-198.2667C1086,-216.5552 1086,-242 1086,-242 1086,-242 939.8908,-242 939.8908,-242"/><polygon fill="#000" stroke="#000" points="939.891 -238.5 929.891 -242 939.891 -245.5 939.891 -238.5"/></g><g id="node7" class="node"><title>ResetComponent</title><polygon fill="#ffffb3" stroke="#000" points="1010.434 -198 897.566 -198 897.566 -162 1010.434 -162 1010.434 -198"/><text x="954" y="-175.8" fill="#000" font-family="Times,serif" font-size="14" text-anchor="middle">ResetComponent</text></g><g id="edge6" class="edge"><title>ResetComponent-&gt;AuthModule</title><path fill="none" stroke="#000" d="M913.7784,-198.2228C913.7784,-198.2228 913.7784,-219.7269 913.7784,-219.7269"/><polygon fill="#000" stroke="#000" points="910.279 -219.727 913.778 -229.727 917.279 -219.727 910.279 -219.727"/></g><g id="node8" class="node"><title>SignupComponent</title><polygon fill="#ffffb3" stroke="#000" points="879.506 -198 758.494 -198 758.494 -162 879.506 -162 879.506 -198"/><text x="819" y="-175.8" fill="#000" font-family="Times,serif" font-size="14" text-anchor="middle">SignupComponent</text></g><g id="edge7" class="edge"><title>SignupComponent-&gt;AuthModule</title><path fill="none" stroke="#000" d="M860.8647,-198.2228C860.8647,-198.2228 860.8647,-219.7269 860.8647,-219.7269"/><polygon fill="#000" stroke="#000" points="857.365 -219.727 860.865 -229.727 864.365 -219.727 857.365 -219.727"/></g><g id="node10" class="node"><title>AuthRoutingModule</title><polygon fill="#8dd3c7" stroke="#000" points="734.165 -198 731.165 -202 710.165 -202 707.165 -198 601.835 -198 601.835 -162 734.165 -162 734.165 -198"/><text x="668" y="-175.8" fill="#000" font-family="Times,serif" font-size="14" text-anchor="middle">AuthRoutingModule</text></g><g id="edge8" class="edge"><title>AuthRoutingModule-&gt;AuthModule</title><path fill="none" stroke="#000" d="M668,-198.2667C668,-216.5552 668,-242 668,-242 668,-242 832.4084,-242 832.4084,-242"/><polygon fill="#000" stroke="#000" points="832.408 -245.5 842.408 -242 832.408 -238.5 832.408 -245.5"/></g><g id="node11" class="node"><title>FormsModule</title><polygon fill="#8dd3c7" stroke="#000" points="583.829 -198 580.829 -202 559.829 -202 556.829 -198 488.171 -198 488.171 -162 583.829 -162 583.829 -198"/><text x="536" y="-175.8" fill="#000" font-family="Times,serif" font-size="14" text-anchor="middle">FormsModule</text></g><g id="edge9" class="edge"><title>FormsModule-&gt;AuthModule</title><path fill="none" stroke="#000" d="M536,-198.2921C536,-220.2057 536,-254 536,-254 536,-254 832.3799,-254 832.3799,-254"/><polygon fill="#000" stroke="#000" points="832.38 -257.5 842.38 -254 832.38 -250.5 832.38 -257.5"/></g><g id="node34" class="node"><title>FormsComponent</title><polygon fill="#fb8072" stroke="#000" points="442.111 -122 321.889 -122 321.889 -86 442.111 -86 442.111 -122"/><text x="382" y="-99.8" fill="#000" font-family="Times,serif" font-size="14" text-anchor="middle">FormsComponent</text></g><g id="edge27" class="edge"><title>FormsModule-&gt;FormsComponent</title><path fill="none" stroke="#000" stroke-dasharray="5 2" d="M488.1176,-180C442.9106,-180 382,-180 382,-180 382,-180 382,-132.0109 382,-132.0109"/><polygon fill="#000" stroke="#000" points="385.5 -132.011 382 -122.011 378.5 -132.011 385.5 -132.011"/></g><g id="node12" class="node"><title>BlankComponent</title><polygon fill="#ffffb3" stroke="#000" points="1596.274 -122 1481.726 -122 1481.726 -86 1596.274 -86 1596.274 -122"/><text x="1539" y="-99.8" fill="#000" font-family="Times,serif" font-size="14" text-anchor="middle">BlankComponent</text></g><g id="node13" class="node"><title>BlankModule</title><polygon fill="#8dd3c7" stroke="#000" points="1509.492 -198 1506.492 -202 1485.492 -202 1482.492 -198 1416.508 -198 1416.508 -162 1509.492 -162 1509.492 -198"/><text x="1463" y="-175.8" fill="#000" font-family="Times,serif" font-size="14" text-anchor="middle">BlankModule</text></g><g id="edge10" class="edge"><title>BlankComponent-&gt;BlankModule</title><path fill="none" stroke="#000" d="M1495.5543,-122.0109C1495.5543,-122.0109 1495.5543,-151.855 1495.5543,-151.855"/><polygon fill="#000" stroke="#000" points="1492.054 -151.855 1495.554 -161.855 1499.054 -151.855 1492.054 -151.855"/></g><g id="node15" class="node"><title>BlankComponent</title><polygon fill="#fb8072" stroke="#000" points="1522.274 -266 1403.726 -266 1403.726 -230 1522.274 -230 1522.274 -266"/><text x="1463" y="-243.8" fill="#000" font-family="Times,serif" font-size="14" text-anchor="middle">BlankComponent</text></g><g id="edge12" class="edge"><title>BlankModule-&gt;BlankComponent</title><path fill="none" stroke="#000" stroke-dasharray="5 2" d="M1463,-198.2228C1463,-198.2228 1463,-219.7269 1463,-219.7269"/><polygon fill="#000" stroke="#000" points="1459.5 -219.727 1463 -229.727 1466.5 -219.727 1459.5 -219.727"/></g><g id="node14" class="node"><title>BlankRoutingModule</title><polygon fill="#8dd3c7" stroke="#000" points="1458.109 -122 1455.109 -126 1434.109 -126 1431.109 -122 1319.891 -122 1319.891 -86 1458.109 -86 1458.109 -122"/><text x="1389" y="-99.8" fill="#000" font-family="Times,serif" font-size="14" text-anchor="middle">BlankRoutingModule</text></g><g id="edge11" class="edge"><title>BlankRoutingModule-&gt;BlankModule</title><path fill="none" stroke="#000" d="M1437.2795,-122.0109C1437.2795,-122.0109 1437.2795,-151.855 1437.2795,-151.855"/><polygon fill="#000" stroke="#000" points="1433.78 -151.855 1437.28 -161.855 1440.78 -151.855 1433.78 -151.855"/></g><g id="node16" class="node"><title>CardsComponent</title><polygon fill="#ffffb3" stroke="#000" points="1911.989 -122 1798.011 -122 1798.011 -86 1911.989 -86 1911.989 -122"/><text x="1855" y="-99.8" fill="#000" font-family="Times,serif" font-size="14" text-anchor="middle">CardsComponent</text></g><g id="node17" class="node"><title>CardsModule</title><polygon fill="#8dd3c7" stroke="#000" points="1825.206 -198 1822.206 -202 1801.206 -202 1798.206 -198 1732.794 -198 1732.794 -162 1825.206 -162 1825.206 -198"/><text x="1779" y="-175.8" fill="#000" font-family="Times,serif" font-size="14" text-anchor="middle">CardsModule</text></g><g id="edge13" class="edge"><title>CardsComponent-&gt;CardsModule</title><path fill="none" stroke="#000" d="M1811.5544,-122.0109C1811.5544,-122.0109 1811.5544,-151.855 1811.5544,-151.855"/><polygon fill="#000" stroke="#000" points="1808.054 -151.855 1811.554 -161.855 1815.054 -151.855 1808.054 -151.855"/></g><g id="node19" class="node"><title>CardsComponent</title><polygon fill="#fb8072" stroke="#000" points="1837.99 -266 1720.01 -266 1720.01 -230 1837.99 -230 1837.99 -266"/><text x="1779" y="-243.8" fill="#000" font-family="Times,serif" font-size="14" text-anchor="middle">CardsComponent</text></g><g id="edge15" class="edge"><title>CardsModule-&gt;CardsComponent</title><path fill="none" stroke="#000" stroke-dasharray="5 2" d="M1779,-198.2228C1779,-198.2228 1779,-219.7269 1779,-219.7269"/><polygon fill="#000" stroke="#000" points="1775.5 -219.727 1779 -229.727 1782.5 -219.727 1775.5 -219.727"/></g><g id="node18" class="node"><title>CardsRoutingModule</title><polygon fill="#8dd3c7" stroke="#000" points="1773.824 -122 1770.824 -126 1749.824 -126 1746.824 -122 1636.176 -122 1636.176 -86 1773.824 -86 1773.824 -122"/><text x="1705" y="-99.8" fill="#000" font-family="Times,serif" font-size="14" text-anchor="middle">CardsRoutingModule</text></g><g id="edge14" class="edge"><title>CardsRoutingModule-&gt;CardsModule</title><path fill="none" stroke="#000" d="M1753.2795,-122.0109C1753.2795,-122.0109 1753.2795,-151.855 1753.2795,-151.855"/><polygon fill="#000" stroke="#000" points="1749.78 -151.855 1753.28 -161.855 1756.78 -151.855 1749.78 -151.855"/></g><g id="node20" class="node"><title>ChartjsComponent</title><polygon fill="#ffffb3" stroke="#000" points="2243.77 -122 2122.23 -122 2122.23 -86 2243.77 -86 2243.77 -122"/><text x="2183" y="-99.8" fill="#000" font-family="Times,serif" font-size="14" text-anchor="middle">ChartjsComponent</text></g><g id="node21" class="node"><title>ChartjsModule</title><polygon fill="#8dd3c7" stroke="#000" points="2152.987 -198 2149.987 -202 2128.987 -202 2125.987 -198 2053.013 -198 2053.013 -162 2152.987 -162 2152.987 -198"/><text x="2103" y="-175.8" fill="#000" font-family="Times,serif" font-size="14" text-anchor="middle">ChartjsModule</text></g><g id="edge16" class="edge"><title>ChartjsComponent-&gt;ChartjsModule</title><path fill="none" stroke="#000" d="M2137.5544,-122.0109C2137.5544,-122.0109 2137.5544,-151.855 2137.5544,-151.855"/><polygon fill="#000" stroke="#000" points="2134.054 -151.855 2137.554 -161.855 2141.054 -151.855 2134.054 -151.855"/></g><g id="node23" class="node"><title>ChartjsComponent</title><polygon fill="#fb8072" stroke="#000" points="2165.77 -266 2040.23 -266 2040.23 -230 2165.77 -230 2165.77 -266"/><text x="2103" y="-243.8" fill="#000" font-family="Times,serif" font-size="14" text-anchor="middle">ChartjsComponent</text></g><g id="edge18" class="edge"><title>ChartjsModule-&gt;ChartjsComponent</title><path fill="none" stroke="#000" stroke-dasharray="5 2" d="M2103,-198.2228C2103,-198.2228 2103,-219.7269 2103,-219.7269"/><polygon fill="#000" stroke="#000" points="2099.5 -219.727 2103 -229.727 2106.5 -219.727 2099.5 -219.727"/></g><g id="node22" class="node"><title>ChartjsRoutingModule</title><polygon fill="#8dd3c7" stroke="#000" points="2097.605 -122 2094.605 -126 2073.605 -126 2070.605 -122 1952.395 -122 1952.395 -86 2097.605 -86 2097.605 -122"/><text x="2025" y="-99.8" fill="#000" font-family="Times,serif" font-size="14" text-anchor="middle">ChartjsRoutingModule</text></g><g id="edge17" class="edge"><title>ChartjsRoutingModule-&gt;ChartjsModule</title><path fill="none" stroke="#000" d="M2075.2795,-122.0109C2075.2795,-122.0109 2075.2795,-151.855 2075.2795,-151.855"/><polygon fill="#000" stroke="#000" points="2071.78 -151.855 2075.28 -161.855 2078.78 -151.855 2071.78 -151.855"/></g><g id="node24" class="node"><title>ContentComponent</title><polygon fill="#ffffb3" stroke="#000" points="2581.665 -122 2456.335 -122 2456.335 -86 2581.665 -86 2581.665 -122"/><text x="2519" y="-99.8" fill="#000" font-family="Times,serif" font-size="14" text-anchor="middle">ContentComponent</text></g><g id="node25" class="node"><title>ContentModule</title><polygon fill="#8dd3c7" stroke="#000" points="2488.882 -198 2485.882 -202 2464.882 -202 2461.882 -198 2385.118 -198 2385.118 -162 2488.882 -162 2488.882 -198"/><text x="2437" y="-175.8" fill="#000" font-family="Times,serif" font-size="14" text-anchor="middle">ContentModule</text></g><g id="edge19" class="edge"><title>ContentComponent-&gt;ContentModule</title><path fill="none" stroke="#000" d="M2472.5544,-122.0109C2472.5544,-122.0109 2472.5544,-151.855 2472.5544,-151.855"/><polygon fill="#000" stroke="#000" points="2469.054 -151.855 2472.554 -161.855 2476.054 -151.855 2469.054 -151.855"/></g><g id="node27" class="node"><title>ContentComponent</title><polygon fill="#fb8072" stroke="#000" points="2501.665 -266 2372.335 -266 2372.335 -230 2501.665 -230 2501.665 -266"/><text x="2437" y="-243.8" fill="#000" font-family="Times,serif" font-size="14" text-anchor="middle">ContentComponent</text></g><g id="edge21" class="edge"><title>ContentModule-&gt;ContentComponent</title><path fill="none" stroke="#000" stroke-dasharray="5 2" d="M2437,-198.2228C2437,-198.2228 2437,-219.7269 2437,-219.7269"/><polygon fill="#000" stroke="#000" points="2433.5 -219.727 2437 -229.727 2440.5 -219.727 2433.5 -219.727"/></g><g id="node26" class="node"><title>ContentRoutingModule</title><polygon fill="#8dd3c7" stroke="#000" points="2432.5 -122 2429.5 -126 2408.5 -126 2405.5 -122 2283.5 -122 2283.5 -86 2432.5 -86 2432.5 -122"/><text x="2358" y="-99.8" fill="#000" font-family="Times,serif" font-size="14" text-anchor="middle">ContentRoutingModule</text></g><g id="edge20" class="edge"><title>ContentRoutingModule-&gt;ContentModule</title><path fill="none" stroke="#000" d="M2408.7795,-122.0109C2408.7795,-122.0109 2408.7795,-151.855 2408.7795,-151.855"/><polygon fill="#000" stroke="#000" points="2405.28 -151.855 2408.78 -161.855 2412.28 -151.855 2405.28 -151.855"/></g><g id="node28" class="node"><title>DashboardComponent</title><polygon fill="#ffffb3" stroke="#000" points="2953.973 -122 2812.027 -122 2812.027 -86 2953.973 -86 2953.973 -122"/><text x="2883" y="-99.8" fill="#000" font-family="Times,serif" font-size="14" text-anchor="middle">DashboardComponent</text></g><g id="node29" class="node"><title>DashboardModule</title><polygon fill="#8dd3c7" stroke="#000" points="2853.191 -198 2850.191 -202 2829.191 -202 2826.191 -198 2732.809 -198 2732.809 -162 2853.191 -162 2853.191 -198"/><text x="2793" y="-175.8" fill="#000" font-family="Times,serif" font-size="14" text-anchor="middle">DashboardModule</text></g><g id="edge22" class="edge"><title>DashboardComponent-&gt;DashboardModule</title><path fill="none" stroke="#000" d="M2832.5544,-122.0109C2832.5544,-122.0109 2832.5544,-151.855 2832.5544,-151.855"/><polygon fill="#000" stroke="#000" points="2829.054 -151.855 2832.554 -161.855 2836.054 -151.855 2829.054 -151.855"/></g><g id="node31" class="node"><title>DashboardComponent</title><polygon fill="#fb8072" stroke="#000" points="2865.974 -266 2720.026 -266 2720.026 -230 2865.974 -230 2865.974 -266"/><text x="2793" y="-243.8" fill="#000" font-family="Times,serif" font-size="14" text-anchor="middle">DashboardComponent</text></g><g id="edge24" class="edge"><title>DashboardModule-&gt;DashboardComponent</title><path fill="none" stroke="#000" stroke-dasharray="5 2" d="M2793,-198.2228C2793,-198.2228 2793,-219.7269 2793,-219.7269"/><polygon fill="#000" stroke="#000" points="2789.5 -219.727 2793 -229.727 2796.5 -219.727 2789.5 -219.727"/></g><g id="node30" class="node"><title>DashboardRoutingModule</title><polygon fill="#8dd3c7" stroke="#000" points="2787.809 -122 2784.809 -126 2763.809 -126 2760.809 -122 2622.191 -122 2622.191 -86 2787.809 -86 2787.809 -122"/><text x="2705" y="-99.8" fill="#000" font-family="Times,serif" font-size="14" text-anchor="middle">DashboardRoutingModule</text></g><g id="edge23" class="edge"><title>DashboardRoutingModule-&gt;DashboardModule</title><path fill="none" stroke="#000" d="M2760.2795,-122.0109C2760.2795,-122.0109 2760.2795,-151.855 2760.2795,-151.855"/><polygon fill="#000" stroke="#000" points="2756.78 -151.855 2760.28 -161.855 2763.78 -151.855 2756.78 -151.855"/></g><g id="node32" class="node"><title>FormsComponent</title><polygon fill="#ffffb3" stroke="#000" points="747.611 -122 630.389 -122 630.389 -86 747.611 -86 747.611 -122"/><text x="689" y="-99.8" fill="#000" font-family="Times,serif" font-size="14" text-anchor="middle">FormsComponent</text></g><g id="edge25" class="edge"><title>FormsComponent-&gt;FormsModule</title><path fill="none" stroke="#000" d="M682.3885,-122.1097C682.3885,-131.897 682.3885,-142 682.3885,-142 682.3885,-142 551.888,-142 551.888,-142 551.888,-142 551.888,-151.8903 551.888,-151.8903"/><polygon fill="#000" stroke="#000" points="548.388 -151.89 551.888 -161.89 555.388 -151.89 548.388 -151.89"/></g><g id="node33" class="node"><title>FormsRoutingModule</title><polygon fill="#8dd3c7" stroke="#000" points="606.447 -122 603.447 -126 582.447 -126 579.447 -122 465.553 -122 465.553 -86 606.447 -86 606.447 -122"/><text x="536" y="-99.8" fill="#000" font-family="Times,serif" font-size="14" text-anchor="middle">FormsRoutingModule</text></g><g id="edge26" class="edge"><title>FormsRoutingModule-&gt;FormsModule</title><path fill="none" stroke="#000" d="M520.112,-122.0109C520.112,-122.0109 520.112,-151.855 520.112,-151.855"/><polygon fill="#000" stroke="#000" points="516.612 -151.855 520.112 -161.855 523.612 -151.855 516.612 -151.855"/></g><g id="node35" class="node"><title>IconsComponent</title><polygon fill="#ffffb3" stroke="#000" points="3263.653 -122 3152.347 -122 3152.347 -86 3263.653 -86 3263.653 -122"/><text x="3208" y="-99.8" fill="#000" font-family="Times,serif" font-size="14" text-anchor="middle">IconsComponent</text></g><g id="node36" class="node"><title>IconsModule</title><polygon fill="#8dd3c7" stroke="#000" points="3177.87 -198 3174.87 -202 3153.87 -202 3150.87 -198 3088.13 -198 3088.13 -162 3177.87 -162 3177.87 -198"/><text x="3133" y="-175.8" fill="#000" font-family="Times,serif" font-size="14" text-anchor="middle">IconsModule</text></g><g id="edge28" class="edge"><title>IconsComponent-&gt;IconsModule</title><path fill="none" stroke="#000" d="M3165.0544,-122.0109C3165.0544,-122.0109 3165.0544,-151.855 3165.0544,-151.855"/><polygon fill="#000" stroke="#000" points="3161.554 -151.855 3165.054 -161.855 3168.554 -151.855 3161.554 -151.855"/></g><g id="node38" class="node"><title>IconsComponent</title><polygon fill="#fb8072" stroke="#000" points="3190.652 -266 3075.348 -266 3075.348 -230 3190.652 -230 3190.652 -266"/><text x="3133" y="-243.8" fill="#000" font-family="Times,serif" font-size="14" text-anchor="middle">IconsComponent</text></g><g id="edge30" class="edge"><title>IconsModule-&gt;IconsComponent</title><path fill="none" stroke="#000" stroke-dasharray="5 2" d="M3133,-198.2228C3133,-198.2228 3133,-219.7269 3133,-219.7269"/><polygon fill="#000" stroke="#000" points="3129.5 -219.727 3133 -229.727 3136.5 -219.727 3129.5 -219.727"/></g><g id="node37" class="node"><title>IconsRoutingModule</title><polygon fill="#8dd3c7" stroke="#000" points="3128.487 -122 3125.487 -126 3104.487 -126 3101.487 -122 2993.513 -122 2993.513 -86 3128.487 -86 3128.487 -122"/><text x="3061" y="-99.8" fill="#000" font-family="Times,serif" font-size="14" text-anchor="middle">IconsRoutingModule</text></g><g id="edge29" class="edge"><title>IconsRoutingModule-&gt;IconsModule</title><path fill="none" stroke="#000" d="M3108.2795,-122.0109C3108.2795,-122.0109 3108.2795,-151.855 3108.2795,-151.855"/><polygon fill="#000" stroke="#000" points="3104.78 -151.855 3108.28 -161.855 3111.78 -151.855 3104.78 -151.855"/></g><g id="node39" class="node"><title>PagesComponent</title><polygon fill="#ffffb3" stroke="#000" points="3417.989 -122 3304.011 -122 3304.011 -86 3417.989 -86 3417.989 -122"/><text x="3361" y="-99.8" fill="#000" font-family="Times,serif" font-size="14" text-anchor="middle">PagesComponent</text></g><g id="node40" class="node"><title>PagesModule</title><polygon fill="#8dd3c7" stroke="#000" points="3557.206 -198 3554.206 -202 3533.206 -202 3530.206 -198 3464.794 -198 3464.794 -162 3557.206 -162 3557.206 -198"/><text x="3511" y="-175.8" fill="#000" font-family="Times,serif" font-size="14" text-anchor="middle">PagesModule</text></g><g id="edge31" class="edge"><title>PagesComponent-&gt;PagesModule</title><path fill="none" stroke="#000" d="M3361,-122.0109C3361,-144.4852 3361,-180 3361,-180 3361,-180 3454.7711,-180 3454.7711,-180"/><polygon fill="#000" stroke="#000" points="3454.771 -183.5 3464.771 -180 3454.771 -176.5 3454.771 -183.5"/></g><g id="node43" class="node"><title>PagesComponent</title><polygon fill="#fb8072" stroke="#000" points="3569.99 -266 3452.01 -266 3452.01 -230 3569.99 -230 3569.99 -266"/><text x="3511" y="-243.8" fill="#000" font-family="Times,serif" font-size="14" text-anchor="middle">PagesComponent</text></g><g id="edge34" class="edge"><title>PagesModule-&gt;PagesComponent</title><path fill="none" stroke="#000" stroke-dasharray="5 2" d="M3511,-198.2228C3511,-198.2228 3511,-219.7269 3511,-219.7269"/><polygon fill="#000" stroke="#000" points="3507.5 -219.727 3511 -229.727 3514.5 -219.727 3507.5 -219.727"/></g><g id="node41" class="node"><title>PagesRoutingModule</title><polygon fill="#8dd3c7" stroke="#000" points="3579.824 -122 3576.824 -126 3555.824 -126 3552.824 -122 3442.176 -122 3442.176 -86 3579.824 -86 3579.824 -122"/><text x="3511" y="-99.8" fill="#000" font-family="Times,serif" font-size="14" text-anchor="middle">PagesRoutingModule</text></g><g id="edge32" class="edge"><title>PagesRoutingModule-&gt;PagesModule</title><path fill="none" stroke="#000" d="M3511,-122.0109C3511,-122.0109 3511,-151.855 3511,-151.855"/><polygon fill="#000" stroke="#000" points="3507.5 -151.855 3511 -161.855 3514.5 -151.855 3507.5 -151.855"/></g><g id="node42" class="node"><title>SharedModule</title><polygon fill="#8dd3c7" stroke="#000" points="3696.423 -122 3693.423 -126 3672.423 -126 3669.423 -122 3597.577 -122 3597.577 -86 3696.423 -86 3696.423 -122"/><text x="3647" y="-99.8" fill="#000" font-family="Times,serif" font-size="14" text-anchor="middle">SharedModule</text></g><g id="edge33" class="edge"><title>SharedModule-&gt;PagesModule</title><path fill="none" stroke="#000" d="M3630.5963,-122.1985C3630.5963,-146.3563 3630.5963,-186 3630.5963,-186 3630.5963,-186 3567.2391,-186 3567.2391,-186"/><polygon fill="#000" stroke="#000" points="3567.239 -182.5 3557.239 -186 3567.239 -189.5 3567.239 -182.5"/></g><g id="node46" class="node"><title>HeaderComponent</title><polygon fill="#fb8072" stroke="#000" points="4006.744 -198 3881.256 -198 3881.256 -162 4006.744 -162 4006.744 -198"/><text x="3944" y="-175.8" fill="#000" font-family="Times,serif" font-size="14" text-anchor="middle">HeaderComponent</text></g><g id="edge37" class="edge"><title>SharedModule-&gt;HeaderComponent</title><path fill="none" stroke="#000" stroke-dasharray="5 2" d="M3696.3769,-113C3780.8301,-113 3944,-113 3944,-113 3944,-113 3944,-151.692 3944,-151.692"/><polygon fill="#000" stroke="#000" points="3940.5 -151.692 3944 -161.692 3947.5 -151.692 3940.5 -151.692"/></g><g id="node47" class="node"><title>SidebarComponent</title><polygon fill="#fb8072" stroke="#000" points="3863.596 -198 3736.404 -198 3736.404 -162 3863.596 -162 3863.596 -198"/><text x="3800" y="-175.8" fill="#000" font-family="Times,serif" font-size="14" text-anchor="middle">SidebarComponent</text></g><g id="edge38" class="edge"><title>SharedModule-&gt;SidebarComponent</title><path fill="none" stroke="#000" stroke-dasharray="5 2" d="M3663.4037,-122.0267C3663.4037,-142.7672 3663.4037,-174 3663.4037,-174 3663.4037,-174 3726.1012,-174 3726.1012,-174"/><polygon fill="#000" stroke="#000" points="3726.101 -177.5 3736.101 -174 3726.101 -170.5 3726.101 -177.5"/></g><g id="node44" class="node"><title>HeaderComponent</title><polygon fill="#ffffb3" stroke="#000" points="4294.744 -198 4173.256 -198 4173.256 -162 4294.744 -162 4294.744 -198"/><text x="4234" y="-175.8" fill="#000" font-family="Times,serif" font-size="14" text-anchor="middle">HeaderComponent</text></g><g id="edge35" class="edge"><title>HeaderComponent-&gt;SharedModule</title><path fill="none" stroke="#000" d="M4234,-161.9737C4234,-137.0227 4234,-95 4234,-95 4234,-95 3706.2893,-95 3706.2893,-95"/><polygon fill="#000" stroke="#000" points="3706.289 -91.5 3696.289 -95 3706.289 -98.5 3706.289 -91.5"/></g><g id="node45" class="node"><title>SidebarComponent</title><polygon fill="#ffffb3" stroke="#000" points="4155.095 -198 4030.905 -198 4030.905 -162 4155.095 -162 4155.095 -198"/><text x="4093" y="-175.8" fill="#000" font-family="Times,serif" font-size="14" text-anchor="middle">SidebarComponent</text></g><g id="edge36" class="edge"><title>SidebarComponent-&gt;SharedModule</title><path fill="none" stroke="#000" d="M4093,-161.9891C4093,-139.5148 4093,-104 4093,-104 4093,-104 3706.4339,-104 3706.4339,-104"/><polygon fill="#000" stroke="#000" points="3706.434 -100.5 3696.434 -104 3706.434 -107.5 3706.434 -100.5"/></g><g id="node48" class="node"><title>StatsComponent</title><polygon fill="#ffffb3" stroke="#000" points="4599.056 -122 4490.944 -122 4490.944 -86 4599.056 -86 4599.056 -122"/><text x="4545" y="-99.8" fill="#000" font-family="Times,serif" font-size="14" text-anchor="middle">StatsComponent</text></g><g id="node49" class="node"><title>StatsModule</title><polygon fill="#8dd3c7" stroke="#000" points="4515.273 -198 4512.273 -202 4491.273 -202 4488.273 -198 4428.727 -198 4428.727 -162 4515.273 -162 4515.273 -198"/><text x="4472" y="-175.8" fill="#000" font-family="Times,serif" font-size="14" text-anchor="middle">StatsModule</text></g><g id="edge39" class="edge"><title>StatsComponent-&gt;StatsModule</title><path fill="none" stroke="#000" d="M4503.0544,-122.0109C4503.0544,-122.0109 4503.0544,-151.855 4503.0544,-151.855"/><polygon fill="#000" stroke="#000" points="4499.554 -151.855 4503.054 -161.855 4506.554 -151.855 4499.554 -151.855"/></g><g id="node51" class="node"><title>StatsComponent</title><polygon fill="#fb8072" stroke="#000" points="4528.055 -266 4415.945 -266 4415.945 -230 4528.055 -230 4528.055 -266"/><text x="4472" y="-243.8" fill="#000" font-family="Times,serif" font-size="14" text-anchor="middle">StatsComponent</text></g><g id="edge41" class="edge"><title>StatsModule-&gt;StatsComponent</title><path fill="none" stroke="#000" stroke-dasharray="5 2" d="M4472,-198.2228C4472,-198.2228 4472,-219.7269 4472,-219.7269"/><polygon fill="#000" stroke="#000" points="4468.5 -219.727 4472 -229.727 4475.5 -219.727 4468.5 -219.727"/></g><g id="node50" class="node"><title>StatsRoutingModule</title><polygon fill="#8dd3c7" stroke="#000" points="4466.891 -122 4463.891 -126 4442.891 -126 4439.891 -122 4335.109 -122 4335.109 -86 4466.891 -86 4466.891 -122"/><text x="4401" y="-99.8" fill="#000" font-family="Times,serif" font-size="14" text-anchor="middle">StatsRoutingModule</text></g><g id="edge40" class="edge"><title>StatsRoutingModule-&gt;StatsModule</title><path fill="none" stroke="#000" d="M4447.7795,-122.0109C4447.7795,-122.0109 4447.7795,-151.855 4447.7795,-151.855"/><polygon fill="#000" stroke="#000" points="4444.279 -151.855 4447.779 -161.855 4451.279 -151.855 4444.279 -151.855"/></g><g id="node52" class="node"><title>TablesComponent</title><polygon fill="#ffffb3" stroke="#000" points="4923.15 -122 4804.85 -122 4804.85 -86 4923.15 -86 4923.15 -122"/><text x="4864" y="-99.8" fill="#000" font-family="Times,serif" font-size="14" text-anchor="middle">TablesComponent</text></g><g id="node53" class="node"><title>TablesModule</title><polygon fill="#8dd3c7" stroke="#000" points="4834.367 -198 4831.367 -202 4810.367 -202 4807.367 -198 4737.633 -198 4737.633 -162 4834.367 -162 4834.367 -198"/><text x="4786" y="-175.8" fill="#000" font-family="Times,serif" font-size="14" text-anchor="middle">TablesModule</text></g><g id="edge42" class="edge"><title>TablesComponent-&gt;TablesModule</title><path fill="none" stroke="#000" d="M4819.5544,-122.0109C4819.5544,-122.0109 4819.5544,-151.855 4819.5544,-151.855"/><polygon fill="#000" stroke="#000" points="4816.054 -151.855 4819.554 -161.855 4823.054 -151.855 4816.054 -151.855"/></g><g id="node55" class="node"><title>TablesComponent</title><polygon fill="#fb8072" stroke="#000" points="4847.15 -266 4724.85 -266 4724.85 -230 4847.15 -230 4847.15 -266"/><text x="4786" y="-243.8" fill="#000" font-family="Times,serif" font-size="14" text-anchor="middle">TablesComponent</text></g><g id="edge44" class="edge"><title>TablesModule-&gt;TablesComponent</title><path fill="none" stroke="#000" stroke-dasharray="5 2" d="M4786,-198.2228C4786,-198.2228 4786,-219.7269 4786,-219.7269"/><polygon fill="#000" stroke="#000" points="4782.5 -219.727 4786 -229.727 4789.5 -219.727 4782.5 -219.727"/></g><g id="node54" class="node"><title>TablesRoutingModule</title><polygon fill="#8dd3c7" stroke="#000" points="4780.985 -122 4777.985 -126 4756.985 -126 4753.985 -122 4639.015 -122 4639.015 -86 4780.985 -86 4780.985 -122"/><text x="4710" y="-99.8" fill="#000" font-family="Times,serif" font-size="14" text-anchor="middle">TablesRoutingModule</text></g><g id="edge43" class="edge"><title>TablesRoutingModule-&gt;TablesModule</title><path fill="none" stroke="#000" d="M4759.2795,-122.0109C4759.2795,-122.0109 4759.2795,-151.855 4759.2795,-151.855"/><polygon fill="#000" stroke="#000" points="4755.779 -151.855 4759.279 -161.855 4762.779 -151.855 4755.779 -151.855"/></g><g id="node56" class="node"><title>TypographyComponent</title><polygon fill="#ffffb3" stroke="#000" points="5310.76 -122 5161.24 -122 5161.24 -86 5310.76 -86 5310.76 -122"/><text x="5236" y="-99.8" fill="#000" font-family="Times,serif" font-size="14" text-anchor="middle">TypographyComponent</text></g><g id="node57" class="node"><title>TypographyModule</title><polygon fill="#8dd3c7" stroke="#000" points="5205.978 -198 5202.978 -202 5181.978 -202 5178.978 -198 5078.022 -198 5078.022 -162 5205.978 -162 5205.978 -198"/><text x="5142" y="-175.8" fill="#000" font-family="Times,serif" font-size="14" text-anchor="middle">TypographyModule</text></g><g id="edge45" class="edge"><title>TypographyComponent-&gt;TypographyModule</title><path fill="none" stroke="#000" d="M5183.5544,-122.0109C5183.5544,-122.0109 5183.5544,-151.855 5183.5544,-151.855"/><polygon fill="#000" stroke="#000" points="5180.054 -151.855 5183.554 -161.855 5187.054 -151.855 5180.054 -151.855"/></g><g id="node59" class="node"><title>TypographyComponent</title><polygon fill="#fb8072" stroke="#000" points="5218.76 -266 5065.24 -266 5065.24 -230 5218.76 -230 5218.76 -266"/><text x="5142" y="-243.8" fill="#000" font-family="Times,serif" font-size="14" text-anchor="middle">TypographyComponent</text></g><g id="edge47" class="edge"><title>TypographyModule-&gt;TypographyComponent</title><path fill="none" stroke="#000" stroke-dasharray="5 2" d="M5142,-198.2228C5142,-198.2228 5142,-219.7269 5142,-219.7269"/><polygon fill="#000" stroke="#000" points="5138.5 -219.727 5142 -229.727 5145.5 -219.727 5138.5 -219.727"/></g><g id="node58" class="node"><title>TypographyRoutingModule</title><polygon fill="#8dd3c7" stroke="#000" points="5136.595 -122 5133.595 -126 5112.595 -126 5109.595 -122 4963.405 -122 4963.405 -86 5136.595 -86 5136.595 -122"/><text x="5050" y="-99.8" fill="#000" font-family="Times,serif" font-size="14" text-anchor="middle">TypographyRoutingModule</text></g><g id="edge46" class="edge"><title>TypographyRoutingModule-&gt;TypographyModule</title><path fill="none" stroke="#000" d="M5107.2795,-122.0109C5107.2795,-122.0109 5107.2795,-151.855 5107.2795,-151.855"/><polygon fill="#000" stroke="#000" points="5103.779 -151.855 5107.279 -161.855 5110.779 -151.855 5103.779 -151.855"/></g><g id="node60" class="node"><title>UserinterfaceComponent</title><polygon fill="#ffffb3" stroke="#000" points="5711.22 -122 5554.78 -122 5554.78 -86 5711.22 -86 5711.22 -122"/><text x="5633" y="-99.8" fill="#000" font-family="Times,serif" font-size="14" text-anchor="middle">UserinterfaceComponent</text></g><g id="node61" class="node"><title>UserinterfaceModule</title><polygon fill="#8dd3c7" stroke="#000" points="5603.437 -198 5600.437 -202 5579.437 -202 5576.437 -198 5468.563 -198 5468.563 -162 5603.437 -162 5603.437 -198"/><text x="5536" y="-175.8" fill="#000" font-family="Times,serif" font-size="14" text-anchor="middle">UserinterfaceModule</text></g><g id="edge48" class="edge"><title>UserinterfaceComponent-&gt;UserinterfaceModule</title><path fill="none" stroke="#000" d="M5579.0544,-122.0109C5579.0544,-122.0109 5579.0544,-151.855 5579.0544,-151.855"/><polygon fill="#000" stroke="#000" points="5575.554 -151.855 5579.054 -161.855 5582.554 -151.855 5575.554 -151.855"/></g><g id="node63" class="node"><title>UserinterfaceComponent</title><polygon fill="#fb8072" stroke="#000" points="5616.22 -266 5455.78 -266 5455.78 -230 5616.22 -230 5616.22 -266"/><text x="5536" y="-243.8" fill="#000" font-family="Times,serif" font-size="14" text-anchor="middle">UserinterfaceComponent</text></g><g id="edge50" class="edge"><title>UserinterfaceModule-&gt;UserinterfaceComponent</title><path fill="none" stroke="#000" stroke-dasharray="5 2" d="M5536,-198.2228C5536,-198.2228 5536,-219.7269 5536,-219.7269"/><polygon fill="#000" stroke="#000" points="5532.5 -219.727 5536 -229.727 5539.5 -219.727 5532.5 -219.727"/></g><g id="node62" class="node"><title>UserinterfaceRoutingModule</title><polygon fill="#8dd3c7" stroke="#000" points="5531.055 -122 5528.055 -126 5507.055 -126 5504.055 -122 5350.945 -122 5350.945 -86 5531.055 -86 5531.055 -122"/><text x="5441" y="-99.8" fill="#000" font-family="Times,serif" font-size="14" text-anchor="middle">UserinterfaceRoutingModule</text></g><g id="edge49" class="edge"><title>UserinterfaceRoutingModule-&gt;UserinterfaceModule</title><path fill="none" stroke="#000" d="M5499.7795,-122.0109C5499.7795,-122.0109 5499.7795,-151.855 5499.7795,-151.855"/><polygon fill="#000" stroke="#000" points="5496.279 -151.855 5499.779 -161.855 5503.279 -151.855 5496.279 -151.855"/></g></g></svg>