<svg xmlns="http://www.w3.org/2000/svg" xmlns:xlink="http://www.w3.org/1999/xlink" width="672" height="284pt" viewBox="0 0 504 284"><g id="graph0" class="graph" transform="scale(1 1) rotate(0) translate(4 280)"><title>dependencies</title><polygon fill="#fff" stroke="transparent" points="-4 4 -4 -280 500 -280 500 4 -4 4"/><text x="227.009" y="-42.4" fill="#000" font-family="sans-serif" font-size="14" font-weight="bold" text-anchor="start">Legend</text><polygon fill="#ffffb3" stroke="transparent" points="14 -10 14 -30 34 -30 34 -10 14 -10"/><text x="37.629" y="-15.4" fill="#000" font-family="sans-serif" font-size="14" text-anchor="start">Declarations</text><polygon fill="#8dd3c7" stroke="transparent" points="127 -10 127 -30 147 -30 147 -10 127 -10"/><text x="150.725" y="-15.4" fill="#000" font-family="sans-serif" font-size="14" text-anchor="start">Module</text><polygon fill="#80b1d3" stroke="transparent" points="213 -10 213 -30 233 -30 233 -10 213 -10"/><text x="236.781" y="-15.4" fill="#000" font-family="sans-serif" font-size="14" text-anchor="start">Bootstrap</text><polygon fill="#fdb462" stroke="transparent" points="310 -10 310 -30 330 -30 330 -10 310 -10"/><text x="333.673" y="-15.4" fill="#000" font-family="sans-serif" font-size="14" text-anchor="start">Providers</text><polygon fill="#fb8072" stroke="transparent" points="406 -10 406 -30 426 -30 426 -10 406 -10"/><text x="429.726" y="-15.4" fill="#000" font-family="sans-serif" font-size="14" text-anchor="start">Exports</text><g id="clust1" class="cluster"><title>cluster_ChartjsModule</title><polygon fill="none" stroke="#000" stroke-dasharray="1 5" points="86 -70 86 -268 410 -268 410 -70 86 -70"/></g><g id="clust2" class="cluster"><title>cluster_ChartjsModule_declarations</title><polygon fill="none" stroke="#000" points="264 -78 264 -130 402 -130 402 -78 264 -78"/></g><g id="clust4" class="cluster"><title>cluster_ChartjsModule_imports</title><polygon fill="none" stroke="#000" points="94 -78 94 -130 256 -130 256 -78 94 -78"/></g><g id="clust5" class="cluster"><title>cluster_ChartjsModule_exports</title><polygon fill="none" stroke="#000" points="182 -208 182 -260 324 -260 324 -208 182 -208"/></g><g id="node1" class="node"><title>ChartjsComponent</title><polygon fill="#ffffb3" stroke="#000" points="393.77 -122 272.23 -122 272.23 -86 393.77 -86 393.77 -122"/><text x="333" y="-99.8" fill="#000" font-family="Times,serif" font-size="14" text-anchor="middle">ChartjsComponent</text></g><g id="node2" class="node"><title>ChartjsModule</title><polygon fill="#8dd3c7" stroke="#000" points="302.987 -187 299.987 -191 278.987 -191 275.987 -187 203.013 -187 203.013 -151 302.987 -151 302.987 -187"/><text x="253" y="-164.8" fill="#000" font-family="Times,serif" font-size="14" text-anchor="middle">ChartjsModule</text></g><g id="edge1" class="edge"><title>ChartjsComponent-&gt;ChartjsModule</title><path fill="none" stroke="#000" d="M287.5544,-122.1061C287.5544,-122.1061 287.5544,-140.991 287.5544,-140.991"/><polygon fill="#000" stroke="#000" points="284.054 -140.991 287.554 -150.991 291.054 -140.991 284.054 -140.991"/></g><g id="node4" class="node"><title>ChartjsComponent</title><polygon fill="#fb8072" stroke="#000" points="315.77 -252 190.23 -252 190.23 -216 315.77 -216 315.77 -252"/><text x="253" y="-229.8" fill="#000" font-family="Times,serif" font-size="14" text-anchor="middle">ChartjsComponent</text></g><g id="edge3" class="edge"><title>ChartjsModule-&gt;ChartjsComponent</title><path fill="none" stroke="#000" stroke-dasharray="5 2" d="M253,-187.1061C253,-187.1061 253,-205.991 253,-205.991"/><polygon fill="#000" stroke="#000" points="249.5 -205.991 253 -215.991 256.5 -205.991 249.5 -205.991"/></g><g id="node3" class="node"><title>ChartjsRoutingModule</title><polygon fill="#8dd3c7" stroke="#000" points="247.605 -122 244.605 -126 223.605 -126 220.605 -122 102.395 -122 102.395 -86 247.605 -86 247.605 -122"/><text x="175" y="-99.8" fill="#000" font-family="Times,serif" font-size="14" text-anchor="middle">ChartjsRoutingModule</text></g><g id="edge2" class="edge"><title>ChartjsRoutingModule-&gt;ChartjsModule</title><path fill="none" stroke="#000" d="M225.2795,-122.1061C225.2795,-122.1061 225.2795,-140.991 225.2795,-140.991"/><polygon fill="#000" stroke="#000" points="221.78 -140.991 225.28 -150.991 228.78 -140.991 221.78 -140.991"/></g></g></svg>